<svg width="332" height="332" viewBox="0 0 332 332" fill="none" xmlns="http://www.w3.org/2000/svg">
<g clip-path="url(#clip0_2016_145)">
<path d="M140.26 140.28C135.172 145.368 131.708 151.85 130.304 158.907C128.9 165.964 129.621 173.279 132.374 179.926C135.128 186.574 139.791 192.256 145.773 196.253C151.756 200.25 158.79 202.384 165.985 202.384C173.18 202.384 180.214 200.25 186.197 196.253C192.179 192.256 196.842 186.574 199.596 179.926C202.349 173.279 203.07 165.964 201.666 158.907C200.262 151.85 196.798 145.368 191.71 140.28C184.88 133.472 175.629 129.649 165.985 129.649C156.341 129.649 147.09 133.472 140.26 140.28ZM184.64 184.67C180.951 188.359 176.25 190.871 171.133 191.888C166.016 192.906 160.712 192.383 155.892 190.387C151.072 188.39 146.952 185.009 144.054 180.671C141.155 176.332 139.608 171.232 139.608 166.015C139.608 160.798 141.155 155.698 144.054 151.359C146.952 147.021 151.072 143.64 155.892 141.643C160.712 139.647 166.016 139.124 171.133 140.142C176.25 141.159 180.951 143.671 184.64 147.36C187.113 149.797 189.077 152.701 190.417 155.904C191.757 159.106 192.448 162.543 192.448 166.015C192.448 169.487 191.757 172.924 190.417 176.126C189.077 179.329 187.113 182.233 184.64 184.67ZM321 160C323.917 160 326.715 158.841 328.778 156.778C330.841 154.715 332 151.917 332 149V95C332 92.0826 330.841 89.2847 328.778 87.2218C326.715 85.1589 323.917 84 321 84H296V75C296 55.32 276.68 36 257 36H248V11C248 8.08262 246.841 5.28473 244.778 3.22183C242.715 1.15893 239.917 0 237 0H183C180.083 0 177.285 1.15893 175.222 3.22183C173.159 5.28473 172 8.08262 172 11V36H160V11C160 8.08262 158.841 5.28473 156.778 3.22183C154.715 1.15893 151.917 0 149 0H95C92.0826 0 89.2847 1.15893 87.2218 3.22183C85.1589 5.28473 84 8.08262 84 11V36H69.48L36 69.48V84H11C8.08262 84 5.28473 85.1589 3.22183 87.2218C1.15893 89.2847 0 92.0826 0 95V149C0 151.917 1.15893 154.715 3.22183 156.778C5.28473 158.841 8.08262 160 11 160H36V172H11C8.08262 172 5.28473 173.159 3.22183 175.222C1.15893 177.285 0 180.083 0 183V237C0 239.917 1.15893 242.715 3.22183 244.778C5.28473 246.841 8.08262 248 11 248H36V258C36 277.89 54.11 296 74 296H84V321C84 323.917 85.1589 326.715 87.2218 328.778C89.2847 330.841 92.0826 332 95 332H149C151.917 332 154.715 330.841 156.778 328.778C158.841 326.715 160 323.917 160 321V296H172V321C172 323.917 173.159 326.715 175.222 328.778C177.285 330.841 180.083 332 183 332H237C239.917 332 242.715 330.841 244.778 328.778C246.841 326.715 248 323.917 248 321V296H262.52L296 262.52V248H321C323.917 248 326.715 246.841 328.778 244.778C330.841 242.715 332 239.917 332 237V183C332 180.083 330.841 177.285 328.778 175.222C326.715 173.159 323.917 172 321 172H296V160H321ZM296 94H321C321.265 94 321.52 94.1054 321.707 94.2929C321.895 94.4804 322 94.7348 322 95V149C322 149.265 321.895 149.52 321.707 149.707C321.52 149.895 321.265 150 321 150H296V94ZM36 238H11C10.7348 238 10.4804 237.895 10.2929 237.707C10.1054 237.52 10 237.265 10 237V183C10 182.735 10.1054 182.48 10.2929 182.293C10.4804 182.105 10.7348 182 11 182H36V238ZM36 150H11C10.7348 150 10.4804 149.895 10.2929 149.707C10.1054 149.52 10 149.265 10 149V95C10 94.7348 10.1054 94.4804 10.2929 94.2929C10.4804 94.1054 10.7348 94 11 94H36V150ZM182 11C182 10.7348 182.105 10.4804 182.293 10.2929C182.48 10.1054 182.735 10 183 10H237C237.265 10 237.52 10.1054 237.707 10.2929C237.895 10.4804 238 10.7348 238 11V36H182V11ZM94 11C94 10.7348 94.1054 10.4804 94.2929 10.2929C94.4804 10.1054 94.7348 10 95 10H149C149.265 10 149.52 10.1054 149.707 10.2929C149.895 10.4804 150 10.7348 150 11V36H94V11ZM46 73.62L73.62 46H174.62L46 174.61V73.62ZM46 188.75L188.75 46H199.93L46 199.94V188.75ZM150 321C150 321.265 149.895 321.52 149.707 321.707C149.52 321.895 149.265 322 149 322H95C94.7348 322 94.4804 321.895 94.2929 321.707C94.1054 321.52 94 321.265 94 321V296H150V321ZM238 321C238 321.265 237.895 321.52 237.707 321.707C237.52 321.895 237.265 322 237 322H183C182.735 322 182.48 321.895 182.293 321.707C182.105 321.52 182 321.265 182 321V296H238V321ZM286 258.38L258.38 286H157.38L286 157.39V258.38ZM286 143.25L143.25 286H132.07L286 132.07V143.25ZM286 115.65V115.93C286.034 116.525 285.942 117.12 285.73 117.676C285.518 118.233 285.191 118.739 284.77 119.16L119.17 284.76C118.749 285.181 118.243 285.508 117.686 285.72C117.13 285.932 116.535 286.024 115.94 285.99H74C59.87 285.99 46 272.12 46 257.99V216.34V216.05C45.9669 215.457 46.0593 214.864 46.2712 214.309C46.4832 213.754 46.8099 213.25 47.23 212.83L212.83 47.23C213.25 46.8099 213.754 46.4832 214.309 46.2712C214.864 46.0593 215.457 45.9669 216.05 46H216.2H257C271.36 46 286 60.64 286 75V115.65ZM321 182C321.265 182 321.52 182.105 321.707 182.293C321.895 182.48 322 182.735 322 183V237C322 237.265 321.895 237.52 321.707 237.707C321.52 237.895 321.265 238 321 238H296V182H321Z" fill="#083D66"/>
</g>
<defs>
<clipPath id="clip0_2016_145">
<rect width="332" height="332" fill="white"/>
</clipPath>
</defs>
</svg>
