<svg width="546" height="400" viewBox="0 0 546 400" fill="none" xmlns="http://www.w3.org/2000/svg">
<g clip-path="url(#clip0_2016_156)">
<path d="M425.81 198.85C425.81 114.41 357.11 45.7104 272.67 45.7104C188.23 45.7104 119.53 114.41 119.53 198.85V199.33C119.53 283.77 188.23 352.47 272.67 352.47C357.11 352.47 425.81 283.77 425.81 199.33V198.85ZM272.69 342C193.85 342 129.69 277.92 129.55 199.11C129.69 120.29 193.85 56.2104 272.69 56.2104C351.53 56.2104 415.69 120.29 415.83 199.11C415.69 277.9 351.53 342 272.69 342ZM272.69 130.65C259.197 130.648 246.006 134.648 234.786 142.143C223.566 149.638 214.821 160.291 209.656 172.757C204.491 185.222 203.138 198.939 205.77 212.173C208.401 225.407 214.897 237.564 224.438 247.106C233.978 256.647 246.134 263.146 259.367 265.779C272.601 268.412 286.318 267.062 298.784 261.898C311.25 256.735 321.906 247.991 329.402 236.772C336.899 225.554 340.9 212.363 340.9 198.87C340.887 180.781 333.697 163.436 320.909 150.643C308.121 137.849 290.779 130.652 272.69 130.63V130.65ZM272.69 257.08C261.174 257.082 249.917 253.669 240.341 247.273C230.765 240.876 223.301 231.784 218.894 221.145C214.486 210.506 213.332 198.799 215.578 187.505C217.824 176.21 223.369 165.835 231.512 157.693C239.655 149.55 250.03 144.005 261.324 141.759C272.619 139.513 284.326 140.666 294.964 145.074C305.603 149.482 314.696 156.946 321.092 166.521C327.489 176.097 330.902 187.355 330.9 198.87C330.879 214.3 324.738 229.092 313.826 240.001C302.914 250.909 288.12 257.045 272.69 257.06V257.08ZM272.69 34.1904C274.237 34.1904 275.749 33.7315 277.035 32.8718C278.322 32.0121 279.324 30.7902 279.916 29.3607C280.507 27.9312 280.661 26.3583 280.359 24.8411C280.056 23.3239 279.311 21.9306 278.216 20.8373C277.121 19.7441 275.727 19.0001 274.209 18.6995C272.692 18.3989 271.119 18.5551 269.69 19.1486C268.262 19.742 267.041 20.7458 266.183 22.0331C265.325 23.3205 264.868 24.8333 264.87 26.3804C264.878 28.4492 265.705 30.4306 267.171 31.8906C268.637 33.3507 270.621 34.1704 272.69 34.1704V34.1904ZM200.69 49.0904C202.237 49.0904 203.748 48.6318 205.034 47.7725C206.32 46.9132 207.323 45.6919 207.915 44.263C208.507 42.8341 208.661 41.2618 208.36 39.7448C208.058 38.2279 207.313 36.8345 206.219 35.7408C205.126 34.6472 203.732 33.9024 202.216 33.6007C200.699 33.299 199.126 33.4538 197.697 34.0457C196.268 34.6376 195.047 35.6399 194.188 36.9259C193.329 38.2119 192.87 39.7238 192.87 41.2704C192.873 42.2991 193.078 43.3171 193.475 44.2661C193.871 45.2152 194.451 46.0767 195.182 46.8013C195.912 47.5258 196.778 48.0992 197.73 48.4886C198.682 48.878 199.701 49.0757 200.73 49.0704L200.69 49.0904ZM342.39 49.0904C343.937 49.0924 345.45 48.6355 346.737 47.7774C348.024 46.9193 349.028 45.6987 349.622 44.2699C350.215 42.8412 350.371 41.2685 350.071 39.751C349.77 38.2334 349.026 36.839 347.933 35.7444C346.84 34.6497 345.446 33.904 343.929 33.6014C342.412 33.2989 340.839 33.4532 339.41 34.0447C337.98 34.6363 336.758 35.6386 335.898 36.9248C335.039 38.211 334.58 39.7234 334.58 41.2704C334.583 42.2982 334.788 43.3154 335.184 44.2638C335.58 45.2122 336.159 46.0733 336.888 46.7977C337.617 47.5221 338.482 48.0957 339.433 48.4857C340.384 48.8757 341.402 49.0744 342.43 49.0704L342.39 49.0904ZM393.39 84.5204C394.937 84.5224 396.451 84.0652 397.738 83.2067C399.026 82.3482 400.03 81.127 400.623 79.6976C401.216 78.2683 401.372 76.6951 401.07 75.1773C400.769 73.6594 400.024 72.2651 398.929 71.1708C397.835 70.0766 396.441 69.3316 394.923 69.0302C393.405 68.7288 391.832 68.8845 390.403 69.4776C388.973 70.0707 387.752 71.0746 386.894 72.3621C386.035 73.6496 385.578 75.1629 385.58 76.7104C385.588 78.781 386.417 80.7638 387.884 82.2241C389.352 83.6845 391.339 84.5031 393.41 84.5004L393.39 84.5204ZM148.9 84.5204C150.447 84.5204 151.959 84.0615 153.245 83.2018C154.532 82.3421 155.534 81.1202 156.126 79.6907C156.717 78.2612 156.871 76.6883 156.569 75.1711C156.266 73.6539 155.521 72.2606 154.426 71.1673C153.331 70.0741 151.937 69.3301 150.419 69.0295C148.902 68.7289 147.329 68.8851 145.9 69.4786C144.472 70.072 143.251 71.0758 142.393 72.3631C141.535 73.6504 141.078 75.1634 141.08 76.7104C141.088 78.7827 141.918 80.7671 143.388 82.2277C144.858 83.6883 146.848 84.5057 148.92 84.5004L148.9 84.5204ZM111.48 141.85C113.027 141.85 114.538 141.392 115.824 140.533C117.11 139.673 118.113 138.452 118.705 137.023C119.297 135.594 119.451 134.022 119.15 132.505C118.848 130.988 118.103 129.595 117.009 128.501C115.916 127.407 114.522 126.662 113.006 126.361C111.489 126.059 109.916 126.214 108.487 126.806C107.058 127.398 105.837 128.4 104.978 129.686C104.119 130.972 103.66 132.484 103.66 134.03C103.663 135.057 103.867 136.074 104.263 137.021C104.658 137.969 105.236 138.83 105.964 139.554C106.692 140.278 107.556 140.852 108.506 141.243C109.456 141.633 110.473 141.833 111.5 141.83L111.48 141.85ZM431.65 141.85C433.194 141.846 434.703 141.385 435.986 140.525C437.269 139.665 438.268 138.444 438.857 137.016C439.447 135.589 439.601 134.018 439.299 132.504C438.998 130.989 438.254 129.597 437.163 128.504C436.071 127.412 434.681 126.666 433.166 126.363C431.652 126.059 430.082 126.211 428.653 126.799C427.225 127.387 426.003 128.385 425.141 129.666C424.279 130.948 423.816 132.456 423.81 134C423.809 135.032 424.011 136.053 424.406 137.005C424.801 137.958 425.38 138.823 426.111 139.551C426.841 140.278 427.709 140.854 428.663 141.246C429.617 141.637 430.639 141.836 431.67 141.83L431.65 141.85ZM271.95 363.09C270.405 363.098 268.896 363.564 267.615 364.428C266.334 365.293 265.338 366.518 264.753 367.948C264.167 369.378 264.019 370.95 264.326 372.464C264.633 373.979 265.382 375.368 266.478 376.458C267.574 377.547 268.969 378.287 270.485 378.584C272.002 378.882 273.572 378.723 274.999 378.128C276.425 377.534 277.643 376.53 278.5 375.244C279.356 373.957 279.812 372.446 279.81 370.9C279.81 369.871 279.606 368.851 279.211 367.9C278.815 366.949 278.235 366.086 277.505 365.36C276.774 364.634 275.907 364.06 274.954 363.671C274.001 363.281 272.98 363.084 271.95 363.09ZM343.95 348.19C342.403 348.19 340.891 348.649 339.605 349.508C338.319 350.368 337.317 351.589 336.725 353.018C336.133 354.447 335.978 356.019 336.28 357.536C336.582 359.053 337.327 360.446 338.42 361.54C339.514 362.634 340.907 363.378 342.424 363.68C343.941 363.982 345.514 363.827 346.943 363.235C348.371 362.643 349.593 361.641 350.452 360.355C351.311 359.069 351.77 357.557 351.77 356.01C351.77 354.98 351.566 353.96 351.171 353.009C350.775 352.057 350.196 351.193 349.465 350.467C348.735 349.74 347.868 349.165 346.915 348.774C345.961 348.384 344.94 348.185 343.91 348.19H343.95ZM202.25 348.19C200.703 348.188 199.19 348.645 197.903 349.503C196.615 350.362 195.611 351.582 195.018 353.011C194.425 354.44 194.268 356.012 194.569 357.53C194.87 359.047 195.614 360.442 196.707 361.536C197.8 362.631 199.193 363.377 200.711 363.679C202.228 363.982 203.801 363.828 205.23 363.236C206.66 362.645 207.882 361.642 208.741 360.356C209.601 359.07 210.06 357.558 210.06 356.01C210.06 354.981 209.857 353.962 209.462 353.011C209.067 352.06 208.488 351.197 207.759 350.47C207.03 349.744 206.164 349.168 205.212 348.777C204.259 348.386 203.239 348.186 202.21 348.19H202.25ZM151.25 312.76C149.703 312.76 148.191 313.219 146.904 314.079C145.618 314.939 144.616 316.161 144.024 317.59C143.433 319.02 143.278 320.593 143.581 322.11C143.883 323.627 144.629 325.02 145.724 326.114C146.819 327.207 148.213 327.951 149.73 328.251C151.248 328.552 152.821 328.396 154.249 327.802C155.678 327.209 156.899 326.205 157.757 324.918C158.615 323.63 159.072 322.118 159.07 320.57C159.069 319.543 158.865 318.525 158.47 317.576C158.075 316.627 157.497 315.766 156.769 315.04C156.041 314.315 155.177 313.74 154.226 313.349C153.276 312.958 152.258 312.758 151.23 312.76H151.25ZM395.74 312.76C394.193 312.76 392.681 313.219 391.394 314.079C390.108 314.939 389.106 316.161 388.514 317.59C387.923 319.02 387.768 320.593 388.071 322.11C388.373 323.627 389.119 325.02 390.214 326.114C391.309 327.207 392.703 327.951 394.22 328.251C395.738 328.552 397.311 328.396 398.739 327.802C400.168 327.209 401.389 326.205 402.247 324.918C403.105 323.63 403.562 322.118 403.56 320.57C403.559 319.543 403.355 318.525 402.96 317.576C402.565 316.627 401.987 315.766 401.259 315.04C400.531 314.315 399.667 313.74 398.716 313.349C397.766 312.958 396.748 312.758 395.72 312.76H395.74ZM433.16 255.43C431.613 255.43 430.101 255.889 428.815 256.748C427.529 257.608 426.527 258.829 425.935 260.258C425.343 261.687 425.188 263.259 425.49 264.776C425.792 266.293 426.537 267.686 427.63 268.78C428.724 269.874 430.117 270.618 431.634 270.92C433.151 271.222 434.724 271.067 436.152 270.475C437.581 269.883 438.803 268.881 439.662 267.595C440.521 266.309 440.98 264.797 440.98 263.25C440.98 262.222 440.777 261.203 440.383 260.253C439.989 259.303 439.411 258.44 438.682 257.714C437.954 256.987 437.09 256.412 436.139 256.02C435.188 255.628 434.169 255.428 433.14 255.43H433.16ZM113 255.43C111.453 255.428 109.94 255.885 108.653 256.743C107.365 257.602 106.361 258.822 105.768 260.251C105.175 261.68 105.018 263.252 105.319 264.77C105.62 266.287 106.364 267.682 107.457 268.776C108.55 269.871 109.943 270.617 111.461 270.919C112.978 271.222 114.551 271.068 115.98 270.476C117.41 269.885 118.632 268.882 119.491 267.596C120.351 266.31 120.81 264.798 120.81 263.25C120.81 262.223 120.607 261.205 120.214 260.256C119.82 259.306 119.243 258.444 118.516 257.717C117.789 256.991 116.925 256.415 115.976 256.023C115.026 255.63 114.008 255.429 112.98 255.43H113ZM99.2199 192.25C97.6728 192.248 96.1599 192.705 94.8726 193.563C93.5853 194.422 92.5814 195.642 91.988 197.071C91.3946 198.5 91.2383 200.072 91.5389 201.59C91.8395 203.107 92.5835 204.502 93.6768 205.596C94.77 206.691 96.1634 207.437 97.6806 207.739C99.1978 208.042 100.771 207.888 102.2 207.296C103.63 206.705 104.852 205.702 105.711 204.416C106.571 203.13 107.03 201.618 107.03 200.07C107.03 199.043 106.827 198.025 106.434 197.076C106.04 196.126 105.463 195.264 104.736 194.537C104.009 193.811 103.145 193.235 102.196 192.843C101.246 192.45 100.228 192.249 99.1999 192.25H99.2199ZM445.47 207.89C447.017 207.89 448.528 207.432 449.814 206.573C451.1 205.713 452.103 204.492 452.695 203.063C453.287 201.634 453.441 200.062 453.14 198.545C452.838 197.028 452.093 195.635 450.999 194.541C449.906 193.447 448.512 192.702 446.996 192.401C445.479 192.099 443.906 192.254 442.477 192.846C441.048 193.438 439.827 194.44 438.968 195.726C438.109 197.012 437.65 198.524 437.65 200.07C437.65 202.141 438.471 204.127 439.933 205.593C441.395 207.059 443.379 207.885 445.45 207.89H445.47ZM528.81 179.63L468.72 103.2L433.31 18.3204L351.44 16.2304C326.867 5.6538 300.415 0.134728 273.663 0.00243604C246.911 -0.129856 220.406 5.12734 195.73 15.4604L112.65 17.5904L77.2399 102.46L16.5999 179.63C10.1379 183.593 5.14719 189.558 2.38738 196.617C-0.372434 203.677 -0.750282 211.445 1.31134 218.74C3.37296 226.034 7.76116 232.455 13.8081 237.026C19.8551 241.597 27.2298 244.067 34.8099 244.06C35.8099 244.06 36.7099 244.06 37.6499 243.95H78.4199C86.274 278.023 102.964 309.427 126.81 335L157.71 400H213.5L217.43 390.86C253.764 401.325 292.322 401.259 328.62 390.67L332.62 400H388.41L420.08 333.38C443.151 308.084 459.308 277.265 466.99 243.9H507.14C508.27 244.01 509.42 244.06 510.58 244.06C518.162 244.071 525.539 241.604 531.59 237.035C537.64 232.466 542.032 226.045 544.096 218.749C546.16 211.454 545.784 203.684 543.024 196.622C540.265 189.56 535.273 183.594 528.81 179.63ZM37.1799 234H34.8099V234.11C28.3547 234.095 22.1615 231.556 17.5529 227.036C12.9443 222.516 10.2858 216.373 10.1451 209.919C10.0044 203.466 12.3927 197.213 16.7999 192.496C21.2071 187.78 27.2839 184.973 33.7322 184.677C40.1806 184.38 46.4894 186.616 51.3112 190.908C56.1331 195.2 59.0856 201.207 59.5383 207.646C59.9911 214.085 57.908 220.447 53.7341 225.371C49.5602 230.295 43.6264 233.392 37.1999 234H37.1799ZM76.3699 234H59.2999C64.2083 229.15 67.5632 222.95 68.9376 216.188C70.312 209.426 69.6439 202.408 67.0182 196.026C64.3926 189.645 59.9281 184.189 54.1927 180.352C48.4573 176.516 41.7103 174.472 34.8099 174.48C34.3299 174.48 33.8099 174.48 33.3599 174.48L85.9599 107.53L119.4 27.3804L174.4 25.9704C138.604 46.2812 109.969 77.1698 92.4236 114.399C74.8779 151.628 69.2807 193.374 76.3999 233.91L76.3699 234ZM206.91 390H164.01L146.81 353.74C164.977 368.608 185.627 380.149 207.81 387.83L206.91 390ZM382.1 390H339.21L338.21 387.6C360.659 379.754 381.521 367.951 399.81 352.75L382.1 390ZM272.69 388.66C246.935 388.674 221.45 383.418 197.802 373.217C174.154 363.016 152.843 348.084 135.18 329.34L135.01 328.97L134.89 329.03C101.765 293.974 83.3252 247.561 83.3599 199.33C83.3599 94.9304 168.29 10.0004 272.69 10.0004C377.09 10.0004 462.02 94.9304 462.02 199.33C462.02 303.73 377.09 388.66 272.69 388.66ZM469.02 233.9C476.085 193.632 470.603 152.166 453.317 115.117C436.031 78.0685 407.777 47.2272 372.38 26.7704L426.57 28.1504L459.75 107.68L460.01 108.3L512.01 174.51H510.56C503.674 174.508 496.943 176.549 491.218 180.375C485.494 184.202 481.034 189.641 478.404 196.005C475.773 202.368 475.091 209.37 476.444 216.121C477.796 222.873 481.122 229.071 486 233.93L469.02 233.9ZM511.1 234.06V233.9H507.69C501.298 233.158 495.445 229.961 491.364 224.986C487.284 220.01 485.295 213.644 485.817 207.231C486.34 200.817 489.333 194.857 494.165 190.608C498.997 186.359 505.291 184.152 511.719 184.454C518.146 184.755 524.206 187.541 528.619 192.225C533.032 196.908 535.454 203.122 535.373 209.556C535.293 215.99 532.717 222.142 528.189 226.714C523.66 231.285 517.533 233.919 511.1 234.06ZM272.69 109C254.927 108.998 237.562 114.264 222.791 124.131C208.021 133.999 196.508 148.024 189.709 164.435C182.91 180.845 181.13 198.903 184.594 216.325C188.059 233.747 196.611 249.751 209.171 262.312C221.731 274.873 237.733 283.428 255.155 286.894C272.577 290.36 290.635 288.582 307.046 281.785C323.458 274.988 337.485 263.477 347.353 248.707C357.222 233.938 362.49 216.574 362.49 198.81C362.466 175 352.998 152.172 336.162 135.335C319.327 118.498 296.5 109.027 272.69 109ZM272.69 278.62C256.903 278.62 241.47 273.939 228.343 265.168C215.217 256.396 204.986 243.93 198.945 229.344C192.904 214.758 191.324 198.708 194.404 183.225C197.485 167.741 205.088 153.518 216.252 142.356C227.416 131.193 241.64 123.592 257.124 120.513C272.608 117.434 288.658 119.016 303.243 125.059C317.828 131.102 330.293 141.334 339.063 154.462C347.832 167.59 352.512 183.023 352.51 198.81C352.494 219.978 344.08 240.274 329.115 255.245C314.151 270.215 293.857 278.637 272.69 278.66V278.62ZM510.59 192.56C507.291 192.558 504.065 193.535 501.32 195.367C498.576 197.198 496.436 199.803 495.172 202.85C493.908 205.898 493.577 209.252 494.219 212.488C494.862 215.725 496.449 218.698 498.782 221.031C501.114 223.365 504.086 224.955 507.322 225.599C510.558 226.244 513.912 225.914 516.961 224.652C520.009 223.39 522.615 221.252 524.448 218.508C526.281 215.765 527.26 212.54 527.26 209.24C527.244 204.827 525.482 200.599 522.358 197.481C519.234 194.363 515.003 192.608 510.59 192.6V192.56ZM510.59 215.91C509.268 215.912 507.975 215.522 506.875 214.789C505.775 214.056 504.917 213.012 504.41 211.791C503.903 210.57 503.77 209.226 504.028 207.93C504.285 206.633 504.922 205.442 505.856 204.507C506.791 203.572 507.982 202.936 509.279 202.678C510.576 202.421 511.92 202.554 513.141 203.061C514.362 203.568 515.405 204.425 516.138 205.525C516.871 206.626 517.262 207.918 517.26 209.24C517.27 210.124 517.106 211 516.775 211.819C516.445 212.638 515.956 213.383 515.335 214.012C514.715 214.641 513.976 215.14 513.162 215.482C512.347 215.823 511.473 215.999 510.59 216V215.91ZM34.8099 192.6C31.5109 192.6 28.286 193.579 25.543 195.411C22.8 197.244 20.6621 199.849 19.3996 202.897C18.1371 205.945 17.8068 209.299 18.4504 212.535C19.094 215.77 20.6826 218.742 23.0154 221.075C25.3481 223.408 28.3202 224.996 31.5558 225.64C34.7914 226.284 38.1452 225.953 41.1931 224.691C44.2409 223.428 46.846 221.29 48.6788 218.547C50.5116 215.804 51.4899 212.579 51.4899 209.28C51.4873 204.857 49.7291 200.616 46.6015 197.489C43.474 194.361 39.2329 192.603 34.8099 192.6ZM34.8099 216C33.4883 216 32.1964 215.608 31.0977 214.874C29.9989 214.139 29.1427 213.096 28.6374 211.874C28.1321 210.653 28.0004 209.31 28.259 208.014C28.5176 206.717 29.1548 205.527 30.09 204.593C31.0252 203.66 32.2164 203.024 33.5128 202.768C34.8093 202.511 36.1527 202.645 37.3732 203.152C38.5936 203.659 39.6362 204.517 40.369 205.616C41.1018 206.716 41.4919 208.009 41.4899 209.33C41.4899 210.207 41.317 211.075 40.9812 211.885C40.6454 212.695 40.1532 213.431 39.5328 214.05C38.9123 214.67 38.1759 215.161 37.3655 215.496C36.5551 215.83 35.6867 216.002 34.8099 216Z" fill="#083D66"/>
</g>
<defs>
<clipPath id="clip0_2016_156">
<rect width="545.37" height="400" fill="white"/>
</clipPath>
</defs>
</svg>
