<svg width="127" height="78" viewBox="0 0 127 78" fill="none" xmlns="http://www.w3.org/2000/svg">
<g clip-path="url(#clip0_2016_170)">
<path d="M91.35 28.86C90.2027 26.0088 88.6132 23.3563 86.64 21L85.92 20.15L85.24 21.03C83.3833 23.3773 81.8091 25.9349 80.55 28.65C79.709 30.471 79.2496 32.4448 79.2 34.45V35.23C79.3175 36.9284 80.082 38.5171 81.336 39.6687C82.5899 40.8203 84.2377 41.4471 85.94 41.42C87.6589 41.4233 89.3171 40.785 90.59 39.63C91.1965 39.077 91.686 38.408 92.0295 37.6626C92.3731 36.9171 92.5636 36.1104 92.59 35.29V34.52C92.578 32.5673 92.1555 30.6389 91.35 28.86ZM86 39.64C84.757 39.6855 83.5442 39.2507 82.6132 38.4259C81.6822 37.601 81.1045 36.4494 81 35.21V34.46C81.0468 32.7054 81.4553 30.9794 82.2 29.39C83.2402 27.1489 84.5139 25.0238 86 23.05C87.5382 25.0372 88.7935 27.2281 89.73 29.56C90.4736 31.125 90.8823 32.828 90.93 34.56V35.29C90.9 35.871 90.7556 36.4404 90.5051 36.9656C90.2545 37.4907 89.9028 37.9611 89.47 38.35C88.5127 39.1944 87.2764 39.654 86 39.64ZM112.46 44C111.443 44.378 110.336 44.4459 109.28 44.1953C108.224 43.9446 107.266 43.3866 106.527 42.5918C105.788 41.7969 105.302 40.8009 105.128 39.7295C104.955 38.6581 105.104 37.5595 105.555 36.5723C106.005 35.5852 106.739 34.7539 107.662 34.1834C108.585 33.6129 109.657 33.3288 110.742 33.3671C111.826 33.4054 112.875 33.7643 113.756 34.3984C114.637 35.0326 115.31 35.9135 115.69 36.93C116.188 38.2792 116.134 39.7703 115.541 41.0804C114.948 42.3905 113.863 43.4142 112.52 43.93L112.46 44ZM113.46 32.44C111.978 31.7569 110.305 31.6083 108.726 32.0195C107.147 32.4307 105.759 33.3762 104.798 34.6953C103.837 36.0145 103.363 37.6257 103.456 39.2549C103.549 40.8841 104.204 42.4307 105.309 43.6317C106.414 44.8327 107.901 45.6138 109.517 45.8422C111.132 46.0706 112.777 45.7322 114.172 44.8845C115.566 44.0369 116.624 42.7323 117.165 41.1928C117.706 39.6532 117.697 37.9737 117.14 36.44C116.825 35.5625 116.339 34.7566 115.709 34.0698C115.078 33.3829 114.317 32.8288 113.47 32.44H113.46ZM125 41C124.184 41.076 123.403 41.3664 122.735 41.8416C122.067 42.3168 121.537 42.9601 121.198 43.7062C120.859 44.4523 120.723 45.2747 120.804 46.0902C120.885 46.9057 121.181 47.6853 121.66 48.35C120.932 49.2067 120.107 49.9752 119.2 50.64C118.568 50.1202 117.81 49.7758 117.002 49.6413C116.195 49.5068 115.366 49.5869 114.599 49.8735C113.833 50.1601 113.155 50.6433 112.634 51.2745C112.112 51.9057 111.766 52.6629 111.63 53.47C110.509 53.5602 109.382 53.5199 108.27 53.35C108.191 52.5359 107.901 51.7566 107.427 51.0899C106.953 50.4232 106.313 49.8922 105.57 49.55C104.825 49.2094 104.003 49.0725 103.188 49.1533C102.373 49.2341 101.594 49.5297 100.93 50.01C100.073 49.2821 99.3048 48.4565 98.64 47.55C99.0314 47.0812 99.3266 46.5399 99.5087 45.957C99.6909 45.3741 99.7565 44.761 99.7017 44.1528C99.6469 43.5446 99.4728 42.9531 99.1894 42.4121C98.906 41.8712 98.5189 41.3913 98.05 41C97.4138 40.4725 96.6467 40.1269 95.83 40C95.7415 38.8794 95.7784 37.7524 95.94 36.64C96.7575 36.5669 97.5409 36.2784 98.2105 35.8037C98.88 35.329 99.4117 34.6852 99.7513 33.938C100.091 33.1908 100.226 32.3669 100.143 31.5504C100.061 30.7338 99.7626 29.9538 99.28 29.29C100.008 28.4333 100.833 27.6648 101.74 27C102.209 27.3908 102.751 27.6853 103.335 27.8666C103.918 28.048 104.531 28.1127 105.139 28.0569C105.748 28.0012 106.339 27.8262 106.879 27.5419C107.42 27.2576 107.899 26.8696 108.29 26.4C108.82 25.7615 109.166 24.9905 109.29 24.17C110.411 24.0798 111.538 24.1201 112.65 24.29C112.731 25.1049 113.023 25.8844 113.499 26.551C113.974 27.2177 114.616 27.7483 115.36 28.09C116.108 28.4245 116.931 28.558 117.746 28.4773C118.562 28.3966 119.342 28.1046 120.01 27.63C120.864 28.3607 121.632 29.186 122.3 30.09C121.909 30.5594 121.615 31.1012 121.433 31.6845C121.252 32.2678 121.187 32.881 121.243 33.4893C121.299 34.0976 121.474 34.6889 121.758 35.2295C122.042 35.7701 122.43 36.2494 122.9 36.64C123.541 37.1602 124.306 37.5048 125.12 37.64C125.22 38.7606 125.18 39.8894 125 41ZM126.61 36.83L126.53 36.15H125.84C125.218 36.1366 124.614 35.9364 124.108 35.5754C123.601 35.2144 123.215 34.7092 122.999 34.1256C122.783 33.5421 122.748 32.9071 122.898 32.3033C123.048 31.6995 123.376 31.1548 123.84 30.74L124.36 30.29L123.97 29.72C123.017 28.3048 121.846 27.0493 120.5 26L119.96 25.58L119.47 26.06C119.161 26.3614 118.793 26.5962 118.39 26.75C118.008 26.9008 117.6 26.9741 117.19 26.9655C116.78 26.9569 116.375 26.8666 116 26.7C115.435 26.436 114.962 26.0094 114.642 25.475C114.321 24.9405 114.167 24.3224 114.2 23.7V23.02L113.53 22.89C111.85 22.5604 110.129 22.4997 108.43 22.71L107.76 22.79V23.48C107.752 24.1045 107.555 24.7118 107.194 25.2219C106.834 25.7321 106.328 26.121 105.742 26.3376C105.156 26.5541 104.518 26.5881 103.913 26.435C103.307 26.2819 102.762 25.949 102.35 25.48L102 25L101.44 25.38C100.019 26.3331 98.7592 27.508 97.71 28.86L97.29 29.4L97.77 29.88C98.2086 30.3262 98.5015 30.895 98.6098 31.5112C98.7182 32.1274 98.6369 32.7619 98.3768 33.331C98.1166 33.9 97.6899 34.3766 97.153 34.6979C96.6161 35.0191 95.9944 35.1698 95.37 35.13H94.69L94.56 35.8C94.2304 37.4798 94.1697 39.2012 94.38 40.9L94.47 41.58H95.15C95.7747 41.5852 96.3831 41.7803 96.8943 42.1393C97.4056 42.4983 97.7956 43.0043 98.0126 43.5902C98.2295 44.176 98.2632 44.814 98.1092 45.4194C97.9551 46.0248 97.6206 46.5691 97.15 46.98L96.64 47.43L97.02 48C97.9763 49.4189 99.1507 50.6778 100.5 51.73L101.04 52.15L101.53 51.67C101.973 51.2307 102.54 50.9369 103.155 50.828C103.769 50.719 104.403 50.7999 104.97 51.06C105.537 51.3214 106.013 51.7471 106.336 52.2819C106.659 52.8168 106.813 53.4362 106.78 54.06V54.74L107.45 54.87C109.126 55.1999 110.845 55.2606 112.54 55.05L113.22 54.97V54.28C113.23 53.6578 113.429 53.0532 113.788 52.5454C114.148 52.0376 114.653 51.6503 115.236 51.4342C115.82 51.218 116.455 51.1831 117.059 51.3341C117.663 51.485 118.207 51.8147 118.62 52.28L119.07 52.79L119.64 52.41C121.061 51.46 122.32 50.2885 123.37 48.94L123.79 48.4L123.31 47.91C122.872 47.4644 122.58 46.8966 122.471 46.2814C122.363 45.6663 122.443 45.0327 122.702 44.4641C122.961 43.8956 123.386 43.4189 123.921 43.0968C124.456 42.7747 125.076 42.6224 125.7 42.66H126.38L126.51 41.99C126.848 40.3181 126.912 38.6025 126.7 36.91M98.08 61.78C98.0912 62.5921 98.3126 63.3874 98.7227 64.0884C99.1328 64.7895 99.7176 65.3723 100.42 65.78C100.11 66.8624 99.6769 67.9058 99.13 68.89C98.3397 68.6764 97.5071 68.6753 96.7162 68.8866C95.9253 69.098 95.2042 69.5144 94.6259 70.0938C94.0475 70.6732 93.6324 71.3949 93.4224 72.1862C93.2124 72.9774 93.215 73.8101 93.43 74.6C92.4446 75.1444 91.4015 75.5771 90.32 75.89C89.7034 74.8307 88.6926 74.0583 87.5085 73.7417C86.3244 73.425 85.0631 73.5898 84 74.2C83.2765 74.6083 82.6783 75.2065 82.27 75.93C81.1885 75.6171 80.1454 75.1844 79.16 74.64C79.3758 73.8491 79.3787 73.0151 79.1683 72.2228C78.9579 71.4304 78.5417 70.7077 77.962 70.128C77.3823 69.5483 76.6596 69.1321 75.8672 68.9217C75.0749 68.7113 74.2409 68.7142 73.45 68.93C72.9031 67.9458 72.4703 66.9024 72.16 65.82C72.873 65.4137 73.4658 64.8259 73.8781 64.1163C74.2904 63.4067 74.5076 62.6007 74.5076 61.78C74.5076 60.9593 74.2904 60.1533 73.8781 59.4437C73.4658 58.7341 72.873 58.1463 72.16 57.74C72.4703 56.6576 72.9031 55.6142 73.45 54.63C74.2413 54.8491 75.0765 54.8543 75.8705 54.6451C76.6645 54.436 77.3887 54.0198 77.9693 53.4393C78.5498 52.8587 78.966 52.1345 79.1751 51.3405C79.3843 50.5465 79.3791 49.7113 79.16 48.92C80.1434 48.3713 81.187 47.9385 82.27 47.63C82.6763 48.343 83.2641 48.9358 83.9737 49.3481C84.6833 49.7604 85.4893 49.9776 86.31 49.9776C87.1307 49.9776 87.9367 49.7604 88.6463 49.3481C89.3559 48.9358 89.9437 48.343 90.35 47.63C91.4324 47.9403 92.4758 48.3731 93.46 48.92C93.2409 49.7113 93.2357 50.5465 93.4448 51.3405C93.654 52.1345 94.0702 52.8587 94.6507 53.4393C95.2313 54.0198 95.9556 54.436 96.7495 54.6451C97.5435 54.8543 98.3787 54.8491 99.17 54.63C99.7169 55.6142 100.15 56.6576 100.46 57.74C99.7531 58.1434 99.1642 58.725 98.7519 59.4268C98.3396 60.1286 98.1183 60.9261 98.11 61.74L98.08 61.78ZM101.62 58.89L102.26 58.65L102.11 57.98C101.697 56.314 101.022 54.7242 100.11 53.27L99.76 52.69L99.13 52.97C98.3805 53.3004 97.5306 53.3208 96.7661 53.0266C96.0017 52.7324 95.3847 52.1476 95.05 51.4C94.8719 51.0056 94.7798 50.5778 94.7798 50.145C94.7798 49.7122 94.8719 49.2844 95.05 48.89L95.33 48.26L94.75 47.91C93.2958 46.9982 91.706 46.3231 90.04 45.91L89.37 45.76L89.13 46.39C88.9079 46.9768 88.5125 47.4821 87.9962 47.8388C87.48 48.1954 86.8674 48.3864 86.24 48.3864C85.6126 48.3864 85 48.1954 84.4837 47.8388C83.9675 47.4821 83.5721 46.9768 83.35 46.39L83.1 45.76L82.44 45.91C80.774 46.3231 79.1842 46.9982 77.73 47.91L77.15 48.26L77.42 48.89C77.6768 49.4581 77.7558 50.0905 77.6466 50.7043C77.5374 51.3181 77.245 51.8844 76.808 52.329C76.371 52.7736 75.8097 53.0756 75.1979 53.1954C74.5861 53.3151 73.9524 53.247 73.38 53L72.76 52.72L72.4 53.3C71.492 54.7562 70.8172 56.3454 70.4 58.01L70.24 58.68L70.88 58.92C71.2609 59.0641 71.6095 59.2822 71.9059 59.5615C72.2022 59.8409 72.4404 60.1761 72.6067 60.5478C72.7731 60.9195 72.8643 61.3205 72.8752 61.7276C72.886 62.1347 72.8163 62.5399 72.67 62.92C72.5201 63.3308 72.2822 63.7038 71.973 64.013C71.6638 64.3222 71.2908 64.5601 70.88 64.71L70.24 64.96L70.4 65.62C70.8172 67.2846 71.492 68.8738 72.4 70.33L72.76 70.91L73.39 70.64C73.9588 70.3845 74.5921 70.3088 75.2052 70.4232C75.8182 70.5376 76.3816 70.8365 76.82 71.28C77.2574 71.7222 77.5522 72.2854 77.6663 72.8968C77.7804 73.5082 77.7085 74.1398 77.46 74.71L77.18 75.33L77.77 75.69C79.2277 76.5905 80.8217 77.2491 82.49 77.64L83.16 77.8L83.4 77.16C83.6239 76.5764 84.0195 76.0745 84.5345 75.7204C85.0496 75.3663 85.66 75.1767 86.285 75.1767C86.91 75.1767 87.5204 75.3663 88.0355 75.7204C88.5505 76.0745 88.9461 76.5764 89.17 77.16L89.41 77.8L90.08 77.64C91.7446 77.2472 93.3349 76.5888 94.79 75.69L95.37 75.33L95.09 74.71C94.8442 74.1393 94.7737 73.5084 94.8877 72.8975C95.0017 72.2867 95.2949 71.7236 95.73 71.28C96.1708 70.8369 96.7359 70.5384 97.3503 70.4241C97.9647 70.3098 98.5994 70.3851 99.17 70.64L99.79 70.91L100.15 70.33C101.065 68.8775 101.74 67.2871 102.15 65.62L102.31 64.96L101.66 64.7C101.076 64.4761 100.574 64.0805 100.22 63.5655C99.8663 63.0504 99.6767 62.44 99.6767 61.815C99.6767 61.19 99.8663 60.5796 100.22 60.0645C100.574 59.5495 101.076 59.1539 101.66 58.93L101.62 58.89ZM86.36 67.26C85.2714 67.262 84.2066 66.9408 83.3006 66.3372C82.3946 65.7337 81.6881 64.8748 81.2706 63.8694C80.8531 62.864 80.7433 61.7573 80.9552 60.6895C81.1671 59.6216 81.6911 58.6407 82.4609 57.8709C83.2307 57.1011 84.2116 56.5771 85.2795 56.3652C86.3473 56.1533 87.454 56.2631 88.4594 56.6806C89.4648 57.0981 90.3237 57.8046 90.9273 58.7106C91.5308 59.6166 91.852 60.6814 91.85 61.77C91.85 63.226 91.2716 64.6224 90.242 65.652C89.2124 66.6816 87.816 67.26 86.36 67.26ZM86.36 54.71C84.9612 54.6981 83.5903 55.102 82.4215 55.8705C81.2526 56.639 80.3384 57.7375 79.7948 59.0264C79.2512 60.3154 79.1028 61.7368 79.3684 63.1102C79.634 64.4836 80.3016 65.7472 81.2866 66.7406C82.2715 67.7339 83.5293 68.4123 84.9004 68.6896C86.2716 68.9669 87.6942 68.8307 88.9877 68.2981C90.2812 67.7656 91.3874 66.8608 92.1659 65.6985C92.9443 64.5362 93.36 63.1689 93.36 61.77C93.3601 59.9079 92.6245 58.1212 91.3134 56.7989C90.0024 55.4766 88.222 54.7258 86.36 54.71ZM53.36 40.64H10.06V28.05H0V9.22H28.5V7.35H22.68V0H41.68V7.35H35.84V9.22H50.67L54.29 12.85L80.85 6.19L88 13.34L82.8 18.54L78.6 14.33L73.6 15.59L53.36 40.64ZM12.03 38.64H52.43L72.43 13.81L79.19 12.11L82.79 15.71L85.16 13.34L80.24 8.41L53.68 15.06L49.84 11.22H33.84V5.35H39.66V2H24.66V5.35H30.5V11.22H2V26.05H12.06L12.03 38.64ZM12.03 22.7H5.35V14.57H12.06L12.03 22.7ZM7.32 20.7H10.03V16.57H7.35L7.32 20.7Z" fill="#083D66"/>
</g>
<defs>
<clipPath id="clip0_2016_170">
<rect width="126.75" height="77.76" fill="white"/>
</clipPath>
</defs>
</svg>
