<svg width="411" height="400" viewBox="0 0 411 400" fill="none" xmlns="http://www.w3.org/2000/svg">
<g clip-path="url(#clip0_2016_168)">
<path d="M209.14 330.47L205.14 325.47L201.28 330.59C197.062 336.124 193.505 342.131 190.68 348.49C188.672 352.982 187.584 357.831 187.48 362.75V364.63C187.721 369.189 189.701 373.482 193.012 376.624C196.324 379.766 200.715 381.519 205.28 381.52C209.838 381.593 214.245 379.888 217.568 376.767C220.89 373.646 222.867 369.354 223.08 364.8V362.91C222.965 358.107 221.884 353.376 219.9 349C217.283 342.309 213.654 336.059 209.14 330.47ZM213.05 364.53C212.835 366.461 211.911 368.244 210.456 369.532C209.002 370.82 207.121 371.523 205.178 371.503C203.235 371.483 201.368 370.742 199.941 369.424C198.513 368.106 197.625 366.305 197.45 364.37V362.77C197.556 359.198 198.372 355.683 199.85 352.43C201.415 348.901 203.261 345.503 205.37 342.27C207.47 345.526 209.226 348.991 210.61 352.61L210.7 352.82C212.165 355.997 212.981 359.434 213.1 362.93L213.05 364.53ZM410.05 144.93V116.43H399.79V29.52C399.793 24.1792 397.677 19.0554 393.907 15.2724C390.137 11.4893 385.021 9.35588 379.68 9.34H285.1V0H256.71V9.34H172.1V0H143.71V9.34H30.82C25.4793 9.35588 20.3628 11.4893 16.5929 15.2724C12.823 19.0554 10.7073 24.1792 10.71 29.52V78.12H0V106.63H10.71V145.12C10.7073 150.461 12.823 155.585 16.5929 159.368C20.3628 163.151 25.4793 165.284 30.82 165.3H185.13V241H170.74V284.54H185.13V286.54L185.27 295.31L199.27 313.62H211.08L225.22 296.43L225.3 284.57H238.88V241H225.37L225.27 145.15H225.37C225.373 139.807 223.256 134.682 219.484 130.899C215.711 127.116 210.592 124.983 205.25 124.97H50.94V106.63H58.37V78.12H50.92V49.7H143.69V58.63H172.08V49.7H256.69V58.63H285.08V49.7H359.54V116.43H351.67V144.93H359.56V280.3H350.25V308.8H359.56V379.8C359.5 382.479 359.976 385.143 360.96 387.636C361.944 390.129 363.417 392.4 365.29 394.316C367.164 396.232 369.402 397.754 371.872 398.794C374.342 399.833 376.995 400.369 379.675 400.369C382.355 400.369 385.008 399.833 387.478 398.794C389.948 397.754 392.186 396.232 394.06 394.316C395.933 392.4 397.406 390.129 398.39 387.636C399.374 385.143 399.85 382.479 399.79 379.8V308.8H408.64V280.3H399.79V144.93H410.05ZM9.99001 96.63V88.12H48.37V96.63H9.99001ZM215.26 292.75L206.37 303.56H204.22L195.22 291.79L195.13 286.41V284.51H215.37L215.26 292.75ZM228.9 251V274.54H180.74V251H228.9ZM205.25 135C207.873 135.008 210.391 136.031 212.278 137.854C214.164 139.677 215.272 142.159 215.37 144.78H215.26L215.37 241H195.13V155.3H30.82C28.1306 155.287 25.5562 154.208 23.661 152.299C21.7659 150.391 20.7047 147.809 20.71 145.12V106.63H40.94V134.94L205.25 135ZM143.71 39.7H40.94V78.12H20.71V29.52C20.7047 26.8306 21.7659 24.2488 23.661 22.3405C25.5562 20.4322 28.1306 19.3532 30.82 19.34H143.71V39.7ZM162.1 48.63H153.71V10H162.1V48.63ZM256.71 39.7H172.1V19.34H256.71V39.7ZM275.1 48.63H266.71V10H275.1V48.63ZM285.1 39.7V19.34H379.68C382.369 19.3532 384.944 20.4322 386.839 22.3405C388.734 24.2488 389.795 26.8306 389.79 29.52V116.43H369.56V39.7H285.1ZM389.79 379.82C389.833 381.175 389.602 382.525 389.113 383.789C388.624 385.054 387.886 386.207 386.943 387.181C385.999 388.154 384.87 388.928 383.621 389.457C382.373 389.986 381.031 390.258 379.675 390.258C378.319 390.258 376.977 389.986 375.729 389.457C374.48 388.928 373.351 388.154 372.408 387.181C371.464 386.207 370.726 385.054 370.237 383.789C369.747 382.525 369.517 381.175 369.56 379.82V308.82H389.79V379.82ZM398.64 298.82H360.25V290.32H398.64V298.82ZM369.56 280.32V144.93H389.79V280.3L369.56 280.32ZM361.67 134.93V126.43H400.06V134.93H361.67Z" fill="#083D66"/>
</g>
<defs>
<clipPath id="clip0_2016_168">
<rect width="410.06" height="400" fill="white"/>
</clipPath>
</defs>
</svg>
