<svg width="401" height="400" viewBox="0 0 401 400" fill="none" xmlns="http://www.w3.org/2000/svg">
<g clip-path="url(#clip0_2016_166)">
<path d="M161.36 400H131.58V324H108.87V302.88H0L83.37 219.54H108.87V203H183.87V219.54H209.57L292.95 302.88H183.88V324H161.36V400ZM141.58 390H151.36V324H141.58V390ZM118.87 314H173.87V307.88H118.87V314ZM24.15 292.88H268.81L205.44 229.54H87.51L24.15 292.88ZM118.87 219.12H173.87V213H118.87V219.12ZM303.05 293L219.71 209.63V184.42H203.17V109.42H219.71V83.42L303.05 0V109.42H319.29V133H400.17V162.77H319.29V184.4H303.05V293ZM229.71 205.49L293.05 268.85V24.15L229.71 87.51V205.49ZM303.17 174.49H309.29V162.79H309.17V133H309.29V119.4H303.17V174.49ZM213.17 174.49H219.29V119.49H213.17V174.49ZM319.29 152.79H390.17V143H319.29V152.79Z" fill="#083D66"/>
</g>
<defs>
<clipPath id="clip0_2016_166">
<rect width="400.17" height="400" fill="white"/>
</clipPath>
</defs>
</svg>
