<svg width="400" height="400" viewBox="0 0 400 400" fill="none" xmlns="http://www.w3.org/2000/svg">
<g clip-path="url(#clip0_2016_137)">
<path d="M384.67 123.5C364.23 74.17 325.81 35.75 276.46 15.32C227.12 -5.11 172.77 -5.11 123.43 15.32C21.57 57.5 -26.97 174.67 15.22 276.5C35.66 325.83 74.08 364.25 123.43 384.68C148.09 394.9 174.02 400 199.95 400C225.88 400 251.79 394.89 276.47 384.68C325.81 364.25 364.24 325.83 384.68 276.5C405.12 227.17 405.11 172.83 384.67 123.5ZM375.43 272.67C356.02 319.53 319.51 356.03 272.63 375.44C225.76 394.85 174.13 394.85 127.25 375.44C80.37 356.03 43.87 319.53 24.45 272.67C-15.63 175.93 30.48 64.63 127.25 24.56C174.12 5.15 225.75 5.15 272.63 24.56C319.51 43.97 356.01 80.47 375.43 127.33C394.85 174.19 394.85 225.81 375.43 272.67ZM199.95 71.96C129.33 71.96 71.88 129.4 71.88 200C71.88 270.6 129.33 328.04 199.95 328.04C270.57 328.04 328.02 270.6 328.02 200C328.02 129.4 270.57 71.96 199.95 71.96ZM199.95 318.05C134.84 318.05 81.87 265.1 81.87 200C81.87 134.91 134.83 81.95 199.95 81.95C265.06 81.95 318.03 134.9 318.03 200C318.02 265.09 265.05 318.05 199.95 318.05ZM368.14 183.36L368.28 183.37C368.44 183.38 368.6 183.39 368.76 183.4L374.63 183.6L373.88 177.77C372.89 170.07 371.38 162.39 369.38 154.93L367.86 149.24L362.49 151.67C362.34 151.74 362.19 151.81 362.04 151.89L361.93 151.95C357.71 153.7 353.07 153.7 348.86 151.95C344.64 150.2 341.36 146.92 339.61 142.71C336.01 134.01 340.15 124 348.86 120.39C348.93 120.36 349 120.34 349.07 120.32C349.22 120.27 349.38 120.22 349.53 120.16L355.08 118.13L352.15 112.99C348.32 106.27 343.97 99.71 339.23 93.51L335.6 88.76L331.57 93.17C331.46 93.29 331.36 93.41 331.25 93.53C331.19 93.6 331.12 93.68 331.05 93.75C327.82 96.98 323.53 98.75 318.97 98.75C314.41 98.75 310.12 96.97 306.89 93.75C303.66 90.52 301.89 86.23 301.89 81.67C301.89 77.11 303.67 72.82 306.89 69.59C306.99 69.49 307.09 69.41 307.19 69.32L311.97 65.01L307.24 61.36C301.11 56.63 294.56 52.24 287.75 48.31L282.55 45.31L280.54 50.97L280.39 51.4C280.34 51.54 280.3 51.68 280.25 51.8C276.64 60.5 266.63 64.65 257.92 61.05C253.7 59.3 250.42 56.02 248.67 51.81C246.92 47.59 246.92 42.95 248.67 38.73C248.74 38.57 248.82 38.42 248.89 38.27L251.68 32.47L245.89 30.89C238.31 28.83 230.55 27.26 222.82 26.24L216.82 25.44L217.2 31.89C217.21 32.08 217.23 32.28 217.23 32.48C217.23 37.04 215.45 41.33 212.23 44.56C209 47.79 204.71 49.56 200.15 49.56C195.59 49.56 191.3 47.78 188.07 44.56C184.84 41.33 183.07 37.04 183.07 32.48C183.07 32.26 183.09 32.04 183.1 31.82L183.49 25.4L177.49 26.18C169.68 27.19 161.9 28.74 154.36 30.78L148.53 32.36L151.34 38.15C151.44 38.35 151.54 38.54 151.62 38.74C153.37 42.96 153.37 47.6 151.62 51.81C149.87 56.03 146.59 59.31 142.37 61.05C138.15 62.8 133.51 62.8 129.3 61.05C125.08 59.3 121.8 56.02 120.05 51.8C119.97 51.6 119.9 51.4 119.83 51.19L117.73 45.11L112.49 48.12C105.73 52 99.13 56.41 92.89 61.21L88.1 64.9L92.91 69.16C93.08 69.31 93.25 69.45 93.41 69.61C96.64 72.84 98.41 77.13 98.41 81.69C98.41 86.25 96.63 90.54 93.41 93.77C90.19 97 85.89 98.77 81.33 98.77C76.77 98.77 72.48 96.99 69.25 93.77C69.11 93.63 68.98 93.48 68.85 93.33L64.56 88.5L60.88 93.3C56.15 99.48 51.77 106.07 47.86 112.9L44.88 118.11L50.95 120.23C51.11 120.29 51.28 120.34 51.45 120.41C55.67 122.16 58.95 125.44 60.7 129.65C62.45 133.86 62.45 138.51 60.7 142.72C57.09 151.42 47.08 155.57 38.37 151.97C38.24 151.92 38.12 151.85 37.99 151.79L32.15 149.01L30.6 154.81C28.57 162.4 27.04 170.14 26.05 177.82L25.29 183.76L31.27 183.45L31.71 183.42C31.85 183.41 31.98 183.4 32.12 183.4C41.54 183.4 49.2 191.06 49.2 200.48C49.2 209.9 41.54 217.56 32.12 217.56C32.02 217.56 31.92 217.55 31.82 217.54C31.66 217.53 31.5 217.52 31.34 217.51L25.37 217.25L26.16 223.17C27.2 230.91 28.76 238.62 30.8 246.08L32.36 251.77L37.72 249.3C37.87 249.23 38.03 249.15 38.18 249.08C38.25 249.05 38.32 249.01 38.37 248.98C47.07 245.38 57.09 249.52 60.7 258.22C64.3 266.92 60.16 276.94 51.49 280.53L51.34 280.58C51.18 280.63 51.02 280.69 50.87 280.75L45.34 282.82L48.3 287.93C52.17 294.62 56.53 301.13 61.27 307.26L64.85 311.9L68.87 307.63C68.99 307.51 69.1 307.38 69.21 307.25L69.26 307.19C72.49 303.96 76.78 302.19 81.34 302.19C85.9 302.19 90.19 303.97 93.42 307.19C96.65 310.42 98.42 314.71 98.42 319.27C98.42 323.83 96.64 328.12 93.42 331.34C93.29 331.45 93.17 331.56 93.05 331.67L88.8 335.71L93.46 339.27C99.57 343.93 106.07 348.25 112.78 352.09L117.82 354.98L119.92 349.56C119.97 349.42 120.02 349.28 120.09 349.09C121.84 344.91 125.11 341.65 129.31 339.91C133.53 338.16 138.17 338.16 142.38 339.91C151.06 343.51 155.21 353.47 151.66 362.14C151.59 362.28 151.53 362.41 151.47 362.55L149.14 367.88L154.76 369.38C162.26 371.39 169.88 372.9 177.44 373.89L183.2 374.64L183.09 368.84C183.09 368.7 183.08 368.57 183.07 368.4C183.12 359.02 190.76 351.41 200.15 351.41C209.54 351.41 217.19 359.03 217.23 368.38C217.22 368.52 217.21 368.65 217.21 368.79L217.08 374.62L222.86 373.85C230.5 372.84 238.12 371.31 245.51 369.32L251.09 367.81L248.8 362.51C248.75 362.39 248.69 362.28 248.63 362.15C245.09 353.47 249.24 343.52 257.91 339.92C266.58 336.33 276.55 340.43 280.2 349.06C280.24 349.18 280.28 349.3 280.33 349.43L282.44 354.83L287.47 351.94C294.1 348.13 300.56 343.82 306.69 339.13L311.31 335.59L307.11 331.56C307.02 331.47 306.92 331.39 306.81 331.29C303.63 328.07 301.88 323.81 301.88 319.28C301.88 314.72 303.66 310.43 306.88 307.2C310.11 303.97 314.4 302.2 318.96 302.2C323.49 302.2 327.74 303.95 330.98 307.14C331.08 307.25 331.18 307.36 331.28 307.47L335.31 311.64L338.85 307.04C343.5 301 347.82 294.53 351.7 287.82L354.59 282.82L349.23 280.68C349.09 280.62 348.94 280.57 348.77 280.51C340.13 276.87 336.02 266.9 339.61 258.23C341.36 254.01 344.64 250.73 348.86 248.99C353.06 247.25 357.69 247.25 361.89 248.97C362.03 249.04 362.17 249.11 362.32 249.17L367.64 251.52L369.16 245.91C371.19 238.45 372.74 230.81 373.76 223.19L374.54 217.36L368.66 217.53C368.5 217.53 368.34 217.54 368.18 217.56C358.76 217.56 351.1 209.9 351.1 200.48C351.1 191.02 358.77 183.36 368.14 183.36ZM363.06 227.04C362.44 230.78 361.68 234.5 360.8 238.2C355.55 237.12 350.09 237.63 345.03 239.72C338.35 242.49 333.14 247.69 330.38 254.38C325.36 266.51 329.83 280.24 340.37 287.27C338.36 290.51 336.25 293.67 334.05 296.74C329.63 293.77 324.43 292.17 318.99 292.17C311.76 292.17 304.96 294.99 299.84 300.1C290.57 309.37 289.44 323.75 296.45 334.26C293.36 336.48 290.19 338.59 286.97 340.58C279.93 330.08 266.21 325.63 254.11 330.65C242 335.67 235.45 348.52 237.9 360.9C234.22 361.77 230.49 362.52 226.74 363.13C224.26 350.74 213.3 341.37 200.17 341.37C187.04 341.37 176.05 350.76 173.59 363.18C169.87 362.57 166.13 361.83 162.42 360.96C164.9 348.54 158.35 335.66 146.22 330.64C139.54 327.87 132.18 327.87 125.48 330.64C120.42 332.74 116.2 336.23 113.25 340.71C110.02 338.72 106.84 336.62 103.76 334.42C110.9 323.89 109.8 309.41 100.48 300.09C91.12 290.73 76.55 289.67 66.01 296.9C63.79 293.82 61.66 290.66 59.66 287.44C70.39 280.47 74.99 266.6 69.92 254.37C64.83 242.09 51.69 235.53 39.11 238.28C38.23 234.6 37.47 230.86 36.85 227.11C49.53 224.86 59.19 213.76 59.19 200.45C59.19 187.09 49.47 175.96 36.72 173.76C37.33 170.02 38.07 166.29 38.94 162.57C51.55 165.42 64.81 158.86 69.93 146.51C75.06 134.13 70.29 120.08 59.29 113.19C61.29 109.94 63.4 106.77 65.6 103.68C70.16 106.95 75.61 108.71 81.33 108.71C88.56 108.71 95.36 105.89 100.48 100.78C105.6 95.67 108.41 88.86 108.41 81.63C108.41 75.89 106.63 70.41 103.34 65.84C106.43 63.61 109.61 61.5 112.83 59.5C115.79 64.29 120.17 68.03 125.48 70.23C132.16 73 139.52 73 146.22 70.23C158.63 65.09 165.2 51.73 162.23 39.05C165.92 38.18 169.66 37.44 173.43 36.82C174.33 42.38 176.95 47.51 181.01 51.57C186.12 56.68 192.93 59.5 200.16 59.5C207.39 59.5 214.19 56.68 219.31 51.57C223.36 47.52 225.96 42.42 226.88 36.89C230.62 37.51 234.35 38.27 238.06 39.15C236.79 44.6 237.26 50.3 239.44 55.58C242.21 62.26 247.41 67.47 254.1 70.24C266.44 75.35 280.45 70.63 287.36 59.69C290.6 61.7 293.77 63.82 296.84 66.04C289.39 76.6 290.38 91.35 299.83 100.79C304.94 105.9 311.74 108.72 318.98 108.72C324.6 108.72 329.97 107.02 334.48 103.86C336.69 106.96 338.8 110.13 340.78 113.36C329.96 120.3 325.3 134.23 330.39 146.52C333.16 153.2 338.36 158.41 345.04 161.18C350.17 163.31 355.71 163.8 361.02 162.66C361.88 166.35 362.61 170.08 363.22 173.83C350.65 176.17 341.1 187.22 341.1 200.45C341.09 213.63 350.57 224.64 363.06 227.04ZM199.95 133.02C163.01 133.02 132.95 163.07 132.95 200C132.95 236.93 163.01 266.98 199.95 266.98C236.89 266.98 266.95 236.93 266.95 200C266.95 163.07 236.89 133.02 199.95 133.02ZM199.95 256.98C168.52 256.98 142.96 231.42 142.96 200C142.96 168.58 168.53 143.02 199.95 143.02C231.37 143.02 256.94 168.58 256.94 200C256.94 231.42 231.38 256.98 199.95 256.98ZM199.95 152.7C173.86 152.7 152.64 173.92 152.64 200C152.64 226.08 173.87 247.3 199.95 247.3C226.03 247.3 247.26 226.08 247.26 200C247.26 173.92 226.03 152.7 199.95 152.7ZM199.95 237.3C179.37 237.3 162.64 220.57 162.64 200C162.64 179.43 179.37 162.7 199.95 162.7C220.53 162.7 237.26 179.43 237.26 200C237.26 220.57 220.52 237.3 199.95 237.3Z" fill="#083D66"/>
</g>
<defs>
<clipPath id="clip0_2016_137">
<rect width="400" height="400" fill="white"/>
</clipPath>
</defs>
</svg>
