<svg width="400" height="400" viewBox="0 0 400 400" fill="none" xmlns="http://www.w3.org/2000/svg">
<g clip-path="url(#clip0_2016_139)">
<path d="M200 64C125 64 64 125 64 200C64 275 125 336 200 336C275 336 336 275 336 200C336 125 274.97 64 200 64ZM200 325.92C175.08 325.92 150.719 318.53 129.998 304.685C109.278 290.84 93.1278 271.162 83.5912 248.138C74.0545 225.115 71.5593 199.78 76.4211 175.339C81.2828 150.897 93.2831 128.446 110.905 110.825C128.526 93.2031 150.977 81.2028 175.419 76.341C199.86 71.4793 225.195 73.9745 248.218 83.5112C271.242 93.0478 290.92 109.198 304.765 129.918C318.61 150.639 326 175 326 199.92C325.995 233.343 312.721 265.397 289.094 289.038C265.468 312.679 233.423 325.974 200 326V325.92ZM200 -0.0800018C89.72 -0.0800018 0 89.64 0 199.92C0 310.2 89.72 399.92 200 399.92C310.28 399.92 400 310.2 400 199.92C400 89.64 310.28 0 200 0V-0.0800018ZM200 389.92C95.23 389.92 10 304.69 10 199.92C10 95.15 95.23 9.92 200 9.92C304.77 9.92 390 95.15 390 199.92C390 304.69 304.77 390 200 390V389.92ZM225.17 139.92V125H174.83V140C160.99 145.813 149.589 156.236 142.562 169.5C135.535 182.764 133.316 198.052 136.28 212.767C139.245 227.482 147.211 240.717 158.826 250.225C170.441 259.734 184.989 264.929 200 264.929C215.011 264.929 229.559 259.734 241.174 250.225C252.789 240.717 260.755 227.482 263.72 212.767C266.684 198.052 264.465 182.764 257.438 169.5C250.411 156.236 239.01 145.813 225.17 140V139.92ZM200 255C187.009 255.041 174.424 250.482 164.473 242.132C154.521 233.781 147.847 222.178 145.632 209.378C143.417 196.577 145.805 183.406 152.372 172.197C158.939 160.989 169.261 152.466 181.51 148.14L184.83 146.95V135H215.17V147L218.49 148.19C230.704 152.541 240.987 161.068 247.526 172.264C254.064 183.46 256.437 196.606 254.225 209.382C252.014 222.157 245.36 233.741 235.438 242.087C225.517 250.434 212.966 255.007 200 255Z" fill="#083D66"/>
</g>
<defs>
<clipPath id="clip0_2016_139">
<rect width="400" height="400" fill="white"/>
</clipPath>
</defs>
</svg>
