<svg width="400" height="400" viewBox="0 0 400 400" fill="none" xmlns="http://www.w3.org/2000/svg">
<g clip-path="url(#clip0_2015_131)">
<path d="M200 400C89.72 400 0 310.28 0 200C0 89.72 89.72 0 200 0C310.28 0 400 89.72 400 200C400 310.28 310.28 400 200 400ZM200 10C95.23 10 10 95.23 10 200C10 304.77 95.23 390 200 390C304.77 390 390 304.77 390 200C390 95.23 304.77 10 200 10ZM200 381.41C169.165 381.448 138.835 373.577 111.91 358.55C110.91 358.1 109.91 357.55 109 357.04C107.967 356.446 106.966 355.798 106 355.1C80.0757 339.379 58.5016 317.415 43.247 291.213C27.9924 265.011 19.543 235.406 18.67 205.1C18.4256 203.391 18.302 201.667 18.3 199.94C18.3 198.2 18.427 196.462 18.68 194.74C19.568 164.658 27.9231 135.269 42.9932 109.219C58.0632 83.1691 79.375 61.2757 105.01 45.51C106.281 44.5267 107.617 43.6313 109.01 42.83C110.321 42.0741 111.681 41.4059 113.08 40.83C139.722 26.2173 169.624 18.574 200.01 18.61C300.01 18.61 381.42 99.99 381.42 200.02C381.42 300.05 300.03 381.41 200 381.41ZM138.21 359.89C177.875 375.212 221.818 375.251 261.51 360C260.84 359.78 260.18 359.54 259.51 359.27L209.12 339.18C203.059 336.76 196.301 336.76 190.24 339.18L139.86 359.27C139.33 359.49 138.77 359.7 138.21 359.89ZM199.7 327.36C204.202 327.364 208.661 328.226 212.84 329.9L263.22 350C266.797 351.428 270.651 352.026 274.493 351.75C278.335 351.473 282.064 350.33 285.4 348.405C288.736 346.48 291.592 343.823 293.754 340.636C295.915 337.448 297.326 333.812 297.88 330L305.68 276.33C306.972 267.334 311.677 259.18 318.82 253.56L361.4 220C364.42 217.614 366.86 214.575 368.538 211.111C370.215 207.647 371.087 203.849 371.087 200C371.087 196.151 370.215 192.353 368.538 188.889C366.86 185.425 364.42 182.386 361.4 180L318.82 146.34C311.677 140.72 306.972 132.566 305.68 123.57L297.88 69.9C297.326 66.0885 295.915 62.4522 293.754 59.2644C291.592 56.0767 288.736 53.4205 285.4 51.4955C282.064 49.5705 278.335 48.4268 274.493 48.1505C270.651 47.8741 266.797 48.4723 263.22 49.9L212.84 70C204.404 73.37 194.996 73.37 186.56 70L136.18 49.91C130.139 47.4951 123.401 47.4951 117.36 49.91C115.127 51.1367 112.927 52.4167 110.76 53.75C105.733 57.7797 102.43 63.5721 101.52 69.95L93.72 123.62C92.4331 132.618 87.7268 140.774 80.58 146.39L38 179.97C33.03 183.867 29.6953 189.481 28.65 195.71C28.65 197.15 28.59 198.6 28.59 200.05C28.59 201.5 28.59 202.84 28.64 204.24C29.685 210.477 33.0235 216.098 38 220L80.58 253.58C87.7157 259.184 92.4209 267.32 93.72 276.3L101.52 330C101.989 333.327 103.114 336.527 104.831 339.414C106.548 342.302 108.821 344.819 111.52 346.82C113.12 347.78 114.733 348.72 116.36 349.64C119.463 351.028 122.814 351.776 126.212 351.839C129.611 351.903 132.987 351.281 136.14 350.01L186.52 329.93C190.709 328.241 195.183 327.368 199.7 327.36ZM369.4 226.28C368.82 226.8 368.22 227.28 367.6 227.8L325.01 261.38C319.884 265.419 316.505 271.272 315.57 277.73L307.78 331.41C307.68 332.11 307.56 332.8 307.42 333.49C340.712 306.721 362.815 268.489 369.4 226.28ZM30.7 226.89C37.3609 268.543 59.1385 306.281 91.87 332.89C91.78 332.39 91.69 331.89 91.62 331.39L83.83 277.71C82.8989 271.25 79.5189 265.396 74.39 261.36L31.8 227.8C31.43 227.5 31.06 227.2 30.7 226.89ZM367.6 172.07C368.21 172.55 368.8 173.07 369.38 173.57C362.76 131.443 340.68 93.295 307.45 66.57C307.58 67.2 307.69 67.85 307.78 68.49L315.57 122.17C316.505 128.628 319.884 134.481 325.01 138.52L367.6 172.1V172.07ZM91.84 67.12C59.1518 93.7068 37.3949 131.397 30.72 173L31.8 172.11L74.39 138.53C79.5189 134.494 82.8989 128.64 83.83 122.18L91.62 68.5C91.69 68 91.76 67.56 91.84 67.12ZM138.39 40C138.89 40.17 139.39 40.36 139.88 40.56L190.26 60.65C196.321 63.0697 203.079 63.0697 209.14 60.65L259.52 40.6C260.12 40.36 260.72 40.14 261.33 39.93C221.745 24.7724 177.948 24.8116 138.39 40.04V40ZM260.2 326.58C255.35 326.582 250.607 325.145 246.574 322.452C242.54 319.758 239.395 315.929 237.538 311.448C235.681 306.967 235.195 302.036 236.141 297.279C237.086 292.521 239.422 288.152 242.852 284.722C246.282 281.292 250.651 278.956 255.409 278.011C260.166 277.065 265.097 277.551 269.578 279.408C274.059 281.265 277.888 284.41 280.582 288.444C283.275 292.477 284.712 297.22 284.71 302.07C284.699 308.567 282.114 314.795 277.52 319.389C272.925 323.984 266.697 326.569 260.2 326.58ZM260.2 287.58C257.328 287.578 254.52 288.428 252.13 290.022C249.741 291.616 247.879 293.883 246.778 296.536C245.678 299.19 245.389 302.109 245.948 304.927C246.507 307.744 247.889 310.332 249.919 312.364C251.95 314.395 254.537 315.779 257.354 316.34C260.17 316.901 263.09 316.614 265.744 315.516C268.398 314.417 270.666 312.556 272.262 310.168C273.858 307.78 274.71 304.972 274.71 302.1C274.713 298.247 273.186 294.551 270.465 291.823C267.745 289.095 264.053 287.558 260.2 287.55V287.58ZM137.9 326.58C133.05 326.58 128.309 325.142 124.276 322.447C120.244 319.752 117.101 315.922 115.246 311.441C113.39 306.96 112.905 302.029 113.852 297.273C114.799 292.516 117.135 288.147 120.565 284.718C123.995 281.289 128.365 278.955 133.123 278.01C137.88 277.065 142.81 277.552 147.29 279.409C151.771 281.267 155.599 284.411 158.292 288.445C160.986 292.478 162.422 297.22 162.42 302.07C162.412 308.57 159.826 314.801 155.229 319.396C150.632 323.991 144.4 326.575 137.9 326.58ZM137.9 287.58C135.028 287.58 132.221 288.432 129.833 290.027C127.445 291.623 125.584 293.89 124.485 296.543C123.386 299.197 123.099 302.116 123.659 304.933C124.219 307.749 125.602 310.337 127.633 312.367C129.663 314.398 132.251 315.781 135.067 316.341C137.884 316.901 140.803 316.614 143.457 315.515C146.11 314.416 148.377 312.555 149.973 310.167C151.568 307.779 152.42 304.972 152.42 302.1C152.423 300.191 152.049 298.3 151.321 296.536C150.592 294.771 149.523 293.168 148.175 291.816C146.826 290.465 145.225 289.393 143.462 288.661C141.699 287.929 139.809 287.551 137.9 287.55V287.58ZM199.7 290.18C181.856 290.18 164.412 284.888 149.575 274.974C134.739 265.061 123.175 250.97 116.347 234.483C109.518 217.997 107.732 199.857 111.214 182.355C114.696 164.854 123.29 148.778 135.908 136.161C148.527 123.544 164.603 114.952 182.105 111.472C199.607 107.992 217.747 109.78 234.233 116.61C250.718 123.441 264.808 135.006 274.72 149.844C284.632 164.682 289.922 182.126 289.92 199.97C289.883 223.883 280.364 246.805 263.452 263.71C246.539 280.615 223.613 290.124 199.7 290.15V290.18ZM199.7 119.75C183.834 119.75 168.324 124.455 155.132 133.27C141.94 142.084 131.658 154.613 125.586 169.271C119.515 183.929 117.926 200.059 121.021 215.62C124.117 231.181 131.757 245.475 142.976 256.694C154.195 267.913 168.489 275.553 184.05 278.649C199.611 281.744 215.741 280.155 230.399 274.084C245.057 268.012 257.586 257.73 266.4 244.538C275.215 231.346 279.92 215.836 279.92 199.97C279.904 178.696 271.448 158.298 256.408 143.253C241.369 128.207 220.974 119.744 199.7 119.72V119.75ZM199.7 257.01C188.426 257.01 177.406 253.667 168.033 247.404C158.659 241.141 151.353 232.238 147.039 221.823C142.725 211.408 141.596 199.947 143.795 188.89C145.995 177.833 151.423 167.677 159.395 159.705C167.366 151.733 177.523 146.305 188.58 144.105C199.637 141.906 211.098 143.035 221.513 147.349C231.928 151.663 240.831 158.969 247.094 168.342C253.357 177.716 256.7 188.736 256.7 200.01C256.668 215.117 250.652 229.595 239.969 240.277C229.286 250.958 214.807 256.971 199.7 257V257.01ZM199.7 152.92C190.406 152.92 181.321 155.675 173.593 160.837C165.865 166 159.841 173.337 156.282 181.922C152.724 190.508 151.79 199.955 153.599 209.071C155.409 218.187 159.88 226.561 166.448 233.136C173.016 239.711 181.386 244.192 190.5 246.011C199.614 247.83 209.062 246.906 217.651 243.357C226.24 239.807 233.584 233.791 238.755 226.068C243.925 218.346 246.69 209.264 246.7 199.97C246.695 187.499 241.744 175.539 232.933 166.714C224.122 157.888 212.171 152.916 199.7 152.89V152.92ZM321.47 224.48C316.62 224.482 311.877 223.045 307.844 220.352C303.81 217.658 300.665 213.829 298.808 209.348C296.951 204.867 296.465 199.936 297.411 195.179C298.356 190.421 300.692 186.052 304.122 182.622C307.552 179.192 311.921 176.856 316.679 175.911C321.436 174.965 326.367 175.451 330.848 177.308C335.329 179.165 339.158 182.31 341.852 186.344C344.545 190.377 345.982 195.12 345.98 199.97C345.961 206.462 343.372 212.682 338.779 217.27C334.186 221.858 327.962 224.439 321.47 224.45V224.48ZM321.47 185.48C318.598 185.478 315.79 186.328 313.4 187.922C311.011 189.516 309.149 191.783 308.048 194.436C306.948 197.09 306.659 200.009 307.218 202.827C307.777 205.644 309.159 208.232 311.189 210.264C313.22 212.295 315.807 213.679 318.624 214.24C321.44 214.801 324.36 214.514 327.014 213.416C329.668 212.317 331.936 210.456 333.532 208.068C335.128 205.68 335.98 202.872 335.98 200C335.987 198.089 335.616 196.196 334.89 194.429C334.164 192.662 333.097 191.055 331.749 189.7C330.401 188.346 328.8 187.271 327.036 186.537C325.272 185.802 323.381 185.423 321.47 185.42V185.48ZM77.93 224.48C73.08 224.48 68.3389 223.042 64.3064 220.347C60.2739 217.652 57.1311 213.822 55.2755 209.341C53.42 204.86 52.935 199.929 53.8819 195.173C54.8288 190.416 57.1651 186.047 60.5953 182.618C64.0255 179.189 68.3954 176.855 73.1525 175.91C77.9096 174.965 82.8401 175.452 87.3203 177.309C91.8006 179.167 95.6294 182.311 98.3225 186.345C101.016 190.378 102.452 195.12 102.45 199.97C102.434 206.465 99.8444 212.688 95.2483 217.277C90.6522 221.865 84.4246 224.445 77.93 224.45V224.48ZM77.93 185.48C75.0582 185.48 72.2509 186.332 69.8631 187.927C67.4753 189.523 65.6143 191.79 64.5153 194.443C63.4163 197.097 63.1287 200.016 63.689 202.833C64.2493 205.649 65.6322 208.237 67.6628 210.267C69.6935 212.298 72.2807 213.681 75.0973 214.241C77.9139 214.801 80.8334 214.514 83.4866 213.415C86.1397 212.316 88.4075 210.455 90.0029 208.067C91.5984 205.679 92.45 202.872 92.45 200C92.4566 198.089 92.0859 196.195 91.3593 194.427C90.6327 192.659 89.5643 191.051 88.2155 189.697C86.8667 188.343 85.2639 187.268 83.4989 186.534C81.7339 185.8 79.8415 185.421 77.93 185.42V185.48ZM260.2 122.38C255.35 122.382 250.608 120.946 246.575 118.253C242.541 115.559 239.397 111.731 237.539 107.25C235.682 102.77 235.195 97.8396 236.14 93.0825C237.085 88.3254 239.419 83.9555 242.848 80.5253C246.277 77.0951 250.646 74.7588 255.403 73.8119C260.159 72.865 265.09 73.35 269.571 75.2055C274.052 77.0611 277.882 80.2039 280.577 84.2364C283.272 88.2689 284.71 93.01 284.71 97.86C284.686 104.349 282.095 110.564 277.502 115.147C272.909 119.731 266.689 122.309 260.2 122.32V122.38ZM260.2 83.38C257.327 83.378 254.519 84.2282 252.129 85.8229C249.74 87.4176 247.877 89.6852 246.777 92.3388C245.677 94.9924 245.389 97.9127 245.949 100.73C246.508 103.548 247.892 106.136 249.923 108.167C251.954 110.198 254.542 111.582 257.36 112.141C260.177 112.701 263.098 112.413 265.751 111.313C268.405 110.213 270.672 108.35 272.267 105.961C273.862 103.571 274.712 100.763 274.71 97.89C274.718 95.9781 274.349 94.0833 273.623 92.3143C272.898 90.5452 271.831 88.9366 270.483 87.5805C269.135 86.2243 267.533 85.1473 265.769 84.4111C264.004 83.6749 262.112 83.2939 260.2 83.29V83.38ZM137.9 122.38C133.053 122.38 128.315 120.943 124.284 118.252C120.253 115.56 117.11 111.734 115.252 107.257C113.395 102.78 112.906 97.8532 113.847 93.0984C114.788 88.3436 117.117 83.9745 120.541 80.5429C123.964 77.1114 128.327 74.7714 133.08 73.8185C137.832 72.8656 142.76 73.3426 147.242 75.1893C151.723 77.036 155.557 80.1694 158.258 84.1938C160.96 88.2182 162.408 92.953 162.42 97.8C162.415 104.301 159.83 110.535 155.232 115.132C150.635 119.73 144.401 122.315 137.9 122.32V122.38ZM137.9 83.38C135.024 83.3801 132.213 84.2342 129.823 85.8342C127.433 87.4341 125.572 89.7078 124.476 92.3668C123.38 95.0258 123.098 97.9504 123.667 100.77C124.235 103.589 125.628 106.176 127.669 108.203C129.709 110.229 132.306 111.604 135.129 112.153C137.952 112.702 140.875 112.4 143.526 111.286C146.178 110.171 148.438 108.295 150.022 105.894C151.605 103.493 152.44 100.676 152.42 97.8C152.415 93.9516 150.883 90.2625 148.161 87.5422C145.439 84.8219 141.748 83.2926 137.9 83.29V83.38Z" fill="#083D66"/>
</g>
<defs>
<clipPath id="clip0_2015_131">
<rect width="400" height="400" fill="white"/>
</clipPath>
</defs>
</svg>
