<svg width="407" height="411" viewBox="0 0 407 411" fill="none" xmlns="http://www.w3.org/2000/svg">
<g clip-path="url(#clip0_2016_133)">
<path d="M203.08 0C91.08 0 0 92 0 205.13C0 318.26 91.1 410.26 203.08 410.26C315.06 410.26 406.2 318.24 406.2 205.13C406.2 92.02 315.06 0 203.08 0ZM203.08 400C96.76 400 10.26 312.58 10.26 205.13C10.26 97.68 96.76 10.26 203.08 10.26C309.4 10.26 395.9 97.68 395.9 205.13C395.9 312.58 309.4 400 203.08 400ZM202.92 251.65C228.47 251.65 249.26 230.65 249.26 204.84C249.26 179.03 228.47 158.03 202.92 158.03C177.37 158.03 156.58 179.03 156.58 204.84C156.58 230.65 177.37 251.65 202.92 251.65ZM202.92 168.29C222.82 168.29 239 184.68 239 204.84C239 225 222.82 241.39 202.92 241.39C183.02 241.39 166.83 224.99 166.83 204.84C166.83 184.69 183.02 168.29 202.92 168.29ZM202.92 17.13C100.46 17.13 17.1 101.33 17.1 204.83C17.1 308.33 100.46 392.53 202.92 392.53C305.38 392.53 388.73 308.32 388.73 204.83C388.73 101.34 305.38 17.13 202.92 17.13ZM376.47 177.96L266.47 197.89C266.42 197.38 266.35 196.89 266.28 196.39L372.06 157.39C373.931 164.154 375.404 171.023 376.47 177.96ZM369.09 147.56L264.2 186.25C264.05 185.72 263.88 185.2 263.71 184.68L360.79 127.2C363.979 133.807 366.751 140.607 369.09 147.56ZM356.02 118.13L259.69 175.13C259.43 174.63 259.17 174.13 258.9 173.63L344.74 100.39C348.848 106.075 352.615 111.998 356.02 118.13ZM338.5 92.23L253.2 164.99C252.76 164.42 252.32 163.87 251.86 163.32L323.98 76.46C329.133 81.4194 333.982 86.6857 338.5 92.23ZM316.4 69.56L244.67 155.95C244.26 155.59 243.86 155.23 243.44 154.88L299.2 56.55C305.193 60.5325 310.937 64.8772 316.4 69.56ZM290.52 51.13L235 148.97C234.54 148.7 234.08 148.42 233.61 148.16L271.87 41.66C278.272 44.4385 284.5 47.6009 290.52 51.13ZM262.33 37.88L224.2 143.92L222.68 143.4L241.44 31.71C248.526 33.3182 255.503 35.3723 262.33 37.86V37.88ZM231.4 29.76L212.71 140.98L211.18 140.77L210.85 27.58C217.737 27.8918 224.599 28.6131 231.4 29.74V29.76ZM202.92 150.47C232.53 150.47 256.63 174.86 256.63 204.84C256.63 234.82 232.53 259.2 202.92 259.2C173.31 259.2 149.2 234.81 149.2 204.84C149.2 174.87 173.3 150.47 202.92 150.47ZM202.92 382.27C106.11 382.27 27.36 302.67 27.36 204.83C27.36 107.77 104.85 28.69 200.59 27.42L200.92 140.27C166.57 141.34 138.92 169.88 138.92 204.84C138.92 240.46 167.61 269.45 202.92 269.45C233.05 269.45 258.37 248.29 265.11 219.9H377.84C370.2 310.72 294.7 382.27 202.92 382.27ZM266.69 209.65C266.69 209.18 266.77 208.73 266.79 208.26L377.7 188.13C378.21 193.62 378.48 199.13 378.48 204.8C378.48 206.41 378.48 208.02 378.41 209.62L266.69 209.65Z" fill="#083D66"/>
</g>
<defs>
<clipPath id="clip0_2016_133">
<rect width="406.16" height="410.26" fill="white"/>
</clipPath>
</defs>
</svg>
