<svg width="400" height="400" viewBox="0 0 400 400" fill="none" xmlns="http://www.w3.org/2000/svg">
<g clip-path="url(#clip0_2016_141)">
<path d="M200 127.38C185.637 127.38 171.597 131.639 159.654 139.619C147.712 147.598 138.404 158.94 132.908 172.21C127.411 185.479 125.973 200.081 128.775 214.167C131.577 228.254 138.494 241.194 148.65 251.35C158.806 261.506 171.746 268.423 185.833 271.225C199.919 274.027 214.521 272.589 227.79 267.092C241.06 261.596 252.402 252.288 260.381 240.346C268.361 228.403 272.62 214.363 272.62 200C272.596 180.747 264.938 162.29 251.324 148.676C237.71 135.062 219.253 127.404 200 127.38ZM200 262.62C187.615 262.62 175.508 258.947 165.21 252.067C154.912 245.186 146.886 235.406 142.147 223.964C137.407 212.521 136.167 199.931 138.583 187.783C140.999 175.636 146.963 164.479 155.721 155.721C164.479 146.963 175.636 140.999 187.783 138.583C199.931 136.167 212.521 137.407 223.964 142.147C235.406 146.886 245.186 154.912 252.067 165.21C258.947 175.508 262.62 187.615 262.62 200C262.601 216.602 255.998 232.519 244.259 244.259C232.519 255.998 216.602 262.601 200 262.62ZM200 0C89.72 0 0 89.72 0 200C0 310.28 89.72 400 200 400C310.28 400 400 310.28 400 200C400 89.72 310.28 0 200 0ZM200 390C95.23 390 10 304.77 10 200C10 95.23 95.23 10 200 10C304.77 10 390 95.23 390 200C390 304.77 304.77 390 200 390ZM200 23.5C102.68 23.5 23.5 102.68 23.5 200C23.5 297.32 102.68 376.5 200 376.5C297.32 376.5 376.5 297.32 376.5 200C376.5 102.68 297.32 23.5 200 23.5ZM325.48 105C327.904 102.434 329.358 99.1026 329.59 95.58C349.695 120.407 362.196 150.514 365.59 182.28C362.922 179.902 359.502 178.539 355.93 178.43L327.12 173.6C320.994 172.56 314.736 172.56 308.61 173.6L291.38 176.5C289.177 167.891 285.756 159.641 281.22 152L295.48 141.85C300.547 138.256 304.972 133.834 308.57 128.77L325.48 105ZM304.42 70.4C300.898 70.6355 297.568 72.0885 295 74.51L271.23 91.42C266.162 95.0232 261.731 99.4474 258.12 104.51L247.98 118.78C240.34 114.237 232.09 110.809 223.48 108.6L226.38 91.37C227.42 85.2438 227.42 78.9862 226.38 72.86L221.54 44.1C221.431 40.5279 220.068 37.1081 217.69 34.44C249.462 37.8226 279.58 50.3135 304.42 70.41V70.4ZM182.29 34.4C179.912 37.0681 178.549 40.4879 178.44 44.06L173.6 72.82C172.56 78.9462 172.56 85.2038 173.6 91.33L176.5 108.56C167.89 110.769 159.64 114.197 152 118.74L141.85 104.47C138.251 99.4106 133.829 94.9895 128.77 91.39L105.01 74.48C102.437 72.0599 99.1043 70.6073 95.58 70.37C120.419 50.2915 150.529 37.8148 182.29 34.44V34.4ZM70.41 95.59C70.6478 99.1083 72.1006 102.435 74.52 105L91.43 128.77C95.03 133.835 99.4549 138.26 104.52 141.86L118.78 152C114.237 159.64 110.809 167.89 108.6 176.5L91.37 173.6C85.2438 172.56 78.9862 172.56 72.86 173.6L44.12 178.44C40.5475 178.548 37.1272 179.911 34.46 182.29C37.8391 150.53 50.3231 120.422 70.41 95.59ZM74.52 295C72.1006 297.565 70.6478 300.892 70.41 304.41C50.3051 279.583 37.8035 249.476 34.41 217.71C37.0781 220.088 40.4979 221.451 44.07 221.56L72.83 226.4C78.9562 227.44 85.2138 227.44 91.34 226.4L108.57 223.5C110.789 232.111 114.227 240.362 118.78 248L104.51 258.15C99.4506 261.749 95.0295 266.171 91.43 271.23L74.52 295ZM95.59 329.59C99.1108 329.35 102.44 327.898 105.01 325.48L128.77 308.57C133.835 304.97 138.26 300.545 141.86 295.48L152 281.22C159.64 285.763 167.89 289.191 176.5 291.4L173.6 308.63C172.56 314.756 172.56 321.014 173.6 327.14L178.44 355.9C178.549 359.472 179.912 362.892 182.29 365.56C150.528 362.175 120.42 349.684 95.59 329.59ZM217.71 365.59C220.088 362.922 221.451 359.502 221.56 355.93L226.4 327.17C227.44 321.044 227.44 314.786 226.4 308.66L223.5 291.43C232.11 289.221 240.36 285.793 248 281.25L258.12 295.48C261.72 300.545 266.145 304.97 271.21 308.57L294.98 325.48C297.545 327.899 300.872 329.352 304.39 329.59C279.566 349.681 249.465 362.171 217.71 365.56V365.59ZM318.12 309.22L309.25 318.09C308.257 319.079 306.912 319.635 305.51 319.635C304.108 319.635 302.763 319.079 301.77 318.09L301.47 317.79L277.06 300.42C272.905 297.469 269.275 293.842 266.32 289.69L250.63 267.63L246.63 270.31C237.604 276.328 227.492 280.529 216.86 282.68L212.12 283.68L216.61 310.33C217.46 315.358 217.46 320.492 216.61 325.52L211.61 355.06V355.48C211.61 356.883 211.053 358.229 210.061 359.221C209.069 360.213 207.723 360.77 206.32 360.77H193.73C192.327 360.77 190.981 360.213 189.989 359.221C188.997 358.229 188.44 356.883 188.44 355.48V355L183.44 325.45C182.59 320.429 182.59 315.301 183.44 310.28L187.93 283.62L183.19 282.62C172.558 280.469 162.446 276.268 153.42 270.25L149.42 267.57L133.73 289.63C130.775 293.782 127.145 297.409 122.99 300.36L98.58 317.73L98.28 318.03C97.2867 319.019 95.9419 319.575 94.54 319.575C93.1381 319.575 91.7933 319.019 90.8 318.03L81.93 309.16C80.9407 308.167 80.3853 306.822 80.3853 305.42C80.3853 304.018 80.9407 302.673 81.93 301.68L82.23 301.38L99.58 277C102.531 272.845 106.158 269.215 110.31 266.26L132.37 250.57L129.69 246.57C123.674 237.54 119.473 227.425 117.32 216.79L116.32 212.05L89.68 216.54C84.6523 217.39 79.5177 217.39 74.49 216.54L44.95 211.54H44.53C43.127 211.54 41.7815 210.983 40.7894 209.991C39.7973 208.999 39.24 207.653 39.24 206.25V193.73C39.24 192.327 39.7973 190.981 40.7894 189.989C41.7815 188.997 43.127 188.44 44.53 188.44H44.95L74.49 183.44C79.5143 182.59 84.6457 182.59 89.67 183.44L116.35 188L117.35 183.26C119.501 172.628 123.702 162.516 129.72 153.49L132.4 149.49L110.34 133.8C106.173 130.829 102.535 127.178 99.58 123L82.21 98.59L81.91 98.29C80.9207 97.2967 80.3653 95.9519 80.3653 94.55C80.3653 93.1481 80.9207 91.8033 81.91 90.81L90.78 81.94C91.7733 80.9507 93.1181 80.3953 94.52 80.3953C95.9219 80.3953 97.2667 80.9507 98.26 81.94L98.56 82.24L122.97 99.61C127.122 102.564 130.752 106.191 133.71 110.34L149.4 132.4L153.4 129.72C162.43 123.704 172.545 119.503 183.18 117.35L187.92 116.35L183.43 89.7C182.58 84.6757 182.58 79.5443 183.43 74.52L188.43 44.98V44.56C188.43 43.8653 188.567 43.1774 188.833 42.5356C189.099 41.8938 189.488 41.3106 189.979 40.8194C190.471 40.3282 191.054 39.9385 191.696 39.6727C192.337 39.4068 193.025 39.27 193.72 39.27H206.26C207.663 39.27 209.009 39.8273 210.001 40.8194C210.993 41.8115 211.55 43.157 211.55 44.56V45L216.55 74.54C217.4 79.5677 217.4 84.7023 216.55 89.73L212.06 116.37L216.8 117.37C227.435 119.523 237.55 123.724 246.58 129.74L250.58 132.42L266.27 110.36C269.225 106.208 272.855 102.581 277.01 99.63L301.42 82.26L301.72 81.96C302.713 80.9707 304.058 80.4153 305.46 80.4153C306.862 80.4153 308.207 80.9707 309.2 81.96L318.07 90.83C319.062 91.822 319.619 93.1673 319.619 94.57C319.619 95.9727 319.062 97.318 318.07 98.31L317.77 98.61L300.42 123C297.469 127.155 293.842 130.785 289.69 133.74L267.63 149.4L270.31 153.4C276.328 162.426 280.529 172.538 282.68 183.17L283.68 187.91L310.33 183.42C315.358 182.57 320.492 182.57 325.52 183.42L355.06 188.42H355.48C356.883 188.42 358.229 188.977 359.221 189.969C360.213 190.961 360.77 192.307 360.77 193.71V206.25C360.77 207.653 360.213 208.999 359.221 209.991C358.229 210.983 356.883 211.54 355.48 211.54H355.06L325.52 216.54C320.492 217.39 315.358 217.39 310.33 216.54L283.69 212.05L282.69 216.79C280.539 227.426 276.338 237.541 270.32 246.57L267.64 250.57L289.7 266.26C293.848 269.216 297.472 272.846 300.42 277L317.79 301.41L318.09 301.71C319.082 302.702 319.639 304.047 319.639 305.45C319.639 306.853 319.082 308.198 318.09 309.19L318.12 309.22ZM329.62 304.41C329.388 300.887 327.934 297.556 325.51 294.99L308.6 271.23C304.998 266.17 300.577 261.746 295.52 258.14L281.22 248C285.763 240.36 289.191 232.11 291.4 223.5L308.63 226.4C314.756 227.44 321.014 227.44 327.14 226.4L355.9 221.56C359.472 221.451 362.892 220.088 365.56 217.71C362.175 249.472 349.684 279.58 329.59 304.41H329.62Z" fill="#083D66"/>
</g>
<defs>
<clipPath id="clip0_2016_141">
<rect width="400" height="400" fill="white"/>
</clipPath>
</defs>
</svg>
