<svg width="634" height="400" viewBox="0 0 634 400" fill="none" xmlns="http://www.w3.org/2000/svg">
<g clip-path="url(#clip0_2016_152)">
<path d="M477.99 400H402.49V367.33H120.69V400H45.32L45.07 371.45H0V28.77H69.82V0H387.64V24.66H523.16V131.51H543.7V152.06H588.84V180.82H633.98V231.72H588.84V264.59H543.7V285.14H523.16V367.33H477.99V400ZM412.28 390.2H468.19V357.53H513.36V275.34H533.9V141.34H513.36V34.46H377.84V9.8H79.62V38.57H9.8V361.64H54.8L55.05 390.2H110.89V357.53H412.28V390.2ZM543.7 254.79H579.04V161.85H543.7V254.79ZM588.84 221.92H624.18V190.62H588.84V221.92ZM214.27 309.8H109.61L57.49 260.83V135.83L102.76 90.44H220.4L242.95 115.1H468.02L490.31 134.95V262.95L468.91 285.72L242.72 286.3L214.27 309.8ZM113.49 300H210.74L239.18 276.48L464.66 275.9L480.49 259V139.31L464.29 124.87H238.63L216.08 100.21H106.83L67.3 139.85V256.6L113.49 300ZM162.27 262.43C149.687 262.438 137.385 258.714 126.919 251.729C116.453 244.744 108.294 234.813 103.474 223.19C98.6529 211.568 97.3875 198.777 99.8374 186.435C102.287 174.093 108.342 162.755 117.237 153.855C126.131 144.955 137.465 138.893 149.806 136.435C162.146 133.978 174.938 135.235 186.563 140.048C198.189 144.862 208.126 153.015 215.117 163.476C222.108 173.937 225.84 186.237 225.84 198.82C225.824 215.679 219.123 231.843 207.206 243.767C195.289 255.692 179.129 262.404 162.27 262.43ZM162.27 145.01C151.626 145.002 141.218 148.151 132.364 154.059C123.51 159.967 116.606 168.368 112.528 178.2C108.449 188.032 107.377 198.853 109.449 209.293C111.521 219.734 116.643 229.326 124.166 236.855C131.69 244.385 141.278 249.514 151.717 251.593C162.157 253.673 172.978 252.609 182.813 248.538C192.648 244.466 201.054 237.569 206.969 228.719C212.883 219.87 216.04 209.464 216.04 198.82C216.032 184.557 210.366 170.88 200.285 160.79C190.205 150.7 176.533 145.021 162.27 145V145.01Z" fill="#083D66"/>
</g>
<defs>
<clipPath id="clip0_2016_152">
<rect width="633.98" height="400" fill="white"/>
</clipPath>
</defs>
</svg>
