<svg width="400" height="400" viewBox="0 0 400 400" fill="none" xmlns="http://www.w3.org/2000/svg">
<g clip-path="url(#clip0_2016_135)">
<path d="M356.74 132.93L354.53 127.76L335.12 139L320.42 113.54L339.84 102.33L336.45 97.82C322.604 79.4015 305.181 63.9688 285.226 52.4473C265.27 40.9257 243.194 33.5526 220.32 30.77L214.73 30.11V52.5H185.33V30.09L179.74 30.75C156.859 33.5285 134.776 40.8997 114.813 52.4214C94.8511 63.943 77.4215 79.3778 63.57 97.8L60.19 102.31L79.61 113.52L64.91 139L45.47 127.77L43.26 132.95C34.2073 154.152 29.5404 176.967 29.5404 200.02C29.5404 223.073 34.2073 245.888 43.26 267.09L45.47 272.27L64.91 261L79.61 286.46L60.19 297.67L63.57 302.18C77.4189 320.598 94.844 336.03 114.801 347.552C134.757 359.073 156.835 366.446 179.71 369.23L185.3 369.89V347.5H214.7V369.91L220.29 369.25C243.164 366.467 265.24 359.094 285.196 347.573C305.151 336.051 322.574 320.618 336.42 302.2L339.81 297.69L320.39 286.48L335.12 261L354.56 272.22L356.77 267.05C365.816 245.847 370.48 223.032 370.48 199.98C370.48 176.928 365.816 154.113 356.77 132.91L356.74 132.93ZM349.68 257.93L331.43 247.39L306.73 290.17L324.95 300.69C299.853 331.733 264.131 352.361 224.7 358.58V337.5H175.3V358.55C135.866 352.329 100.142 331.702 75.04 300.66L93.27 290.14L68.57 247.36L50.32 257.9C35.9465 220.638 35.9465 179.362 50.32 142.1L68.57 152.64L93.27 109.86L75.04 99.34C100.142 68.2984 135.866 47.6714 175.3 41.45V62.5H224.7V41.45C264.131 47.6691 299.853 68.2969 324.95 99.34L306.73 109.86L331.43 152.64L349.68 142.1C364.042 179.364 364.042 220.636 349.68 257.9V257.93ZM200 0C89.72 0 0 89.72 0 200C0 310.28 89.72 400 200 400C310.28 400 400 310.28 400 200C400 89.72 310.28 0 200 0ZM200 390C95.23 390 10 304.77 10 200C10 95.23 95.23 10 200 10C304.77 10 390 95.23 390 200C390 304.77 304.77 390 200 390ZM286.82 121.37L262.74 135.27C252.088 124.906 239.032 117.347 224.74 113.27V85.52H175.32V113.3C161.029 117.378 147.973 124.937 137.32 135.3L113.24 121.4L88.54 164.16L112.56 178C108.933 192.422 108.933 207.518 112.56 221.94L88.49 235.83L113.18 278.59L137.26 264.68C147.91 275.047 160.967 282.606 175.26 286.68V314.46H224.63V286.7C238.921 282.622 251.977 275.063 262.63 264.7L286.71 278.6L311.41 235.84L287.44 222C291.06 207.577 291.06 192.483 287.44 178.06L311.49 164.17L286.82 121.37ZM275.68 173.26L276.81 177.05C281.284 192.016 281.284 207.964 276.81 222.93L275.68 226.72L297.84 239.51L283.12 265L260.94 252.19L258.24 255C247.539 266.387 233.732 274.384 218.53 278L214.68 278.91V304.51H185.3V278.91L181.45 278C166.249 274.382 152.443 266.385 141.74 255L139.03 252.13L116.84 265L102.12 239.53L124.29 226.74L123.19 223C118.716 208.034 118.716 192.086 123.19 177.12L124.32 173.33L102.12 160.49L116.82 135.05L139 147.86L141.72 144.99C152.421 133.603 166.228 125.606 181.43 121.99L185.28 121.08V95.48H214.66V121.08L218.51 121.99C233.727 125.604 247.548 133.604 258.26 145L260.97 147.87L283.12 135L297.8 160.44L275.68 173.26ZM214.85 166.66V154.58H185.12V166.67C177.481 170.068 171.24 175.987 167.442 183.436C163.645 190.885 162.52 199.412 164.257 207.59C165.994 215.769 170.487 223.103 176.984 228.366C183.482 233.628 191.589 236.5 199.95 236.5C208.311 236.499 216.418 233.627 222.916 228.365C229.413 223.103 233.907 215.769 235.646 207.591C237.385 199.413 236.263 190.886 232.469 183.435C228.675 175.985 222.437 170.063 214.8 166.66H214.85ZM200 226.5C193.698 226.503 187.602 224.259 182.805 220.171C178.009 216.084 174.827 210.42 173.831 204.197C172.835 197.975 174.09 191.601 177.37 186.22C180.651 180.839 185.742 176.805 191.73 174.84L195.17 173.71V164.58H204.86V173.71L208.3 174.84C214.29 176.805 219.382 180.842 222.662 186.224C225.943 191.607 227.196 197.983 226.198 204.207C225.199 210.431 222.013 216.095 217.213 220.181C212.413 224.267 206.314 226.508 200.01 226.5H200Z" fill="#083D66"/>
</g>
<defs>
<clipPath id="clip0_2016_135">
<rect width="400" height="400" fill="white"/>
</clipPath>
</defs>
</svg>
