<svg width="400" height="400" viewBox="0 0 400 400" fill="none" xmlns="http://www.w3.org/2000/svg">
<g clip-path="url(#clip0_2016_143)">
<path d="M200 146.12C188.135 146.12 176.537 149.638 166.671 156.228C156.805 162.819 149.115 172.187 144.572 183.147C140.029 194.108 138.838 206.17 141.149 217.807C143.46 229.445 149.17 240.136 157.556 248.529C165.942 256.922 176.628 262.64 188.264 264.961C199.9 267.282 211.962 266.101 222.926 261.567C233.891 257.034 243.265 249.351 249.864 239.491C256.463 229.63 259.99 218.035 260 206.17C259.984 190.257 253.659 175 242.412 163.743C231.165 152.487 215.913 146.149 200 146.12ZM200 256.21C190.111 256.21 180.444 253.278 172.221 247.783C163.999 242.289 157.59 234.48 153.806 225.344C150.022 216.208 149.031 206.155 150.961 196.455C152.89 186.756 157.652 177.847 164.645 170.855C171.637 163.862 180.546 159.1 190.245 157.171C199.945 155.241 209.998 156.232 219.134 160.016C228.27 163.8 236.079 170.209 241.573 178.431C247.068 186.654 250 196.321 250 206.21C249.974 219.463 244.697 232.165 235.326 241.536C225.955 250.907 213.253 256.184 200 256.21ZM288.19 162.43C278.568 143.148 262.925 127.526 243.63 117.93L229.06 60.4H170.94L156.37 117.93C137.075 127.526 121.432 143.148 111.81 162.43L54.36 177V235.1L111.67 249.61C121.288 269.048 137.015 284.796 156.44 294.44L170.94 351.68H229.06L243.56 294.44C262.985 284.796 278.712 269.048 288.33 249.61L345.64 235.1V177L288.19 162.43ZM178.73 70.43H221.27L232.12 113.09C211.328 105.916 188.732 105.916 167.94 113.09L178.73 70.43ZM106.86 238.08L64.36 227.31V184.77L106.96 174C99.7808 194.758 99.7456 217.32 106.86 238.1V238.08ZM221.27 341.68H178.73L167.98 299.27C188.719 306.394 211.241 306.394 231.98 299.27L221.27 341.68ZM200 294.62C182.503 294.622 165.399 289.435 150.85 279.716C136.302 269.997 124.962 256.181 118.266 240.017C111.569 223.852 109.816 206.065 113.229 188.905C116.642 171.744 125.067 155.981 137.439 143.609C149.811 131.237 165.574 122.812 182.735 119.399C199.895 115.986 217.682 117.739 233.847 124.436C250.011 131.132 263.827 142.472 273.546 157.021C283.265 171.569 288.452 188.673 288.45 206.17C288.424 229.62 279.096 252.102 262.514 268.684C245.932 285.266 223.45 294.594 200 294.62ZM335.64 227.31L293.12 238.08C300.234 217.3 300.199 194.738 293.02 173.98L335.62 184.77L335.64 227.31ZM200 0C89.72 0 0 89.72 0 200C0 310.28 89.72 400 200 400C310.28 400 400 310.28 400 200C400 89.72 310.28 0 200 0ZM200 390C95.23 390 10 304.77 10 200C10 95.23 95.23 10 200 10C304.77 10 390 95.23 390 200C390 304.77 304.77 390 200 390Z" fill="#083D66"/>
</g>
<defs>
<clipPath id="clip0_2016_143">
<rect width="400" height="400" fill="white"/>
</clipPath>
</defs>
</svg>
